# Made using Asset Forge (www.assetforge.io) version 1.3 

mtllib model.mtl 

g block_default_1

v -0.5 3.3 0.5
v -0.5 3.3 0.4
v -3.5 3.3 0.5
v -3.5 3.3 0.4
v -3.5 4.1 0.4
v -3.5 4.1 0.5
v -0.5 4.1 0.4
v -0.5 4.1 0.5
vn 0 -0.8 0
vn -3 0 0
vn 0 0 -0.1
vn 0 0 0.1
vn 3 0 0
vn 0 0.8 0
vt 0.5 -0.5
vt 0.5 -0.4
vt 3.5 -0.5
vt 3.5 -0.4
vt 0.4 3.3
vt 0.4 4.1
vt 0.5 3.3
vt 0.5 4.1
vt 3.5 3.3
vt 3.5 4.1
vt -0.5 3.3
vt -3.5 3.3
vt -0.5 4.1
vt -3.5 4.1
vt -0.4 4.1
vt -0.4 3.3
vt 0.5 0.4
vt 0.5 0.5
vt 3.5 0.4
vt 3.5 0.5

usemtl customMaterial1 (Instance)
usemap customMaterial1 (Instance)
f 3/3/1 2/2/1 1/1/1
f 2/2/1 3/3/1 4/4/1
f 3/7/2 5/6/2 4/5/2
f 5/6/2 3/7/2 6/8/2
f 5/10/3 2/7/3 4/9/3
f 2/7/3 5/10/3 7/8/3
f 8/13/4 3/12/4 1/11/4
f 3/12/4 8/13/4 6/14/4
f 8/13/5 2/16/5 7/15/5
f 2/16/5 8/13/5 1/11/5
f 5/19/6 8/18/6 7/17/6
f 8/18/6 5/19/6 6/20/6
g block_default_2

v -3.5 0 0.5
v -3.5 0 0.4
v -4.5 0 0.5
v -4.5 0 0.4
v -4.5 4.1 0.4
v -4.5 4.1 0.5
vn 0 -4.1 0
vn -1 0 0
vn 1 0 0
vn 0 4.1 0
vt 4.5 -0.5
vt 4.5 -0.4
vt 0.4 0
vt 0.5 0
vt 4.5 0
vt 3.5 0
vt 4.5 4.1
vt -3.5 0
vt -4.5 0
vt -4.5 4.1
vt -0.4 0
vt -0.5 0
vt 4.5 0.4
vt 4.5 0.5

usemtl customMaterial1 (Instance)
usemap customMaterial1 (Instance)
f 11/21/7 10/4/7 9/3/7
f 10/4/7 11/21/7 12/22/7
f 11/24/8 13/6/8 12/23/8
f 13/6/8 11/24/8 14/8/8
f 13/27/3 10/26/3 12/25/3
f 10/26/3 13/27/3 5/10/3
f 6/14/4 11/29/4 9/28/4
f 11/29/4 6/14/4 14/30/4
f 6/13/9 10/31/9 5/15/9
f 10/31/9 6/13/9 9/32/9
f 13/33/10 6/20/10 5/19/10
f 6/20/10 13/33/10 14/34/10
g block_default_3

v -2.55 0 0.5
v -2.55 0 0.4
v -4.55 0 0.5
v -4.55 0 0.4
v -4.55 4.1 0.4
v -4.55 4.1 0.5
v -2.55 4.1 0.4
v -2.55 4.1 0.5
vn -2 0 0
vn 2 0 0
vt 2.55 -0.5
vt 2.55 -0.4
vt 4.55 -0.5
vt 4.55 -0.4
vt 4.55 0
vt 2.55 0
vt 4.55 4.1
vt 2.55 4.1
vt -2.55 0
vt -4.55 0
vt -2.55 4.1
vt -4.55 4.1
vt 2.55 0.4
vt 2.55 0.5
vt 4.55 0.4
vt 4.55 0.5

usemtl customMaterial1 (Instance)
usemap customMaterial1 (Instance)
f 17/37/7 16/36/7 15/35/7
f 16/36/7 17/37/7 18/38/7
f 17/24/11 19/6/11 18/23/11
f 19/6/11 17/24/11 20/8/11
f 19/41/3 16/40/3 18/39/3
f 16/40/3 19/41/3 21/42/3
f 22/45/4 17/44/4 15/43/4
f 17/44/4 22/45/4 20/46/4
f 22/13/12 16/31/12 21/15/12
f 16/31/12 22/13/12 15/32/12
f 19/49/10 22/48/10 21/47/10
f 22/48/10 19/49/10 20/50/10
g block_default_4

v -4.5 3.3 0.5
v -4.5 3.3 0.4
v -7.5 3.3 0.5
v -7.5 3.3 0.4
v -7.5 4.1 0.4
v -7.5 4.1 0.5
vt 7.5 -0.5
vt 7.5 -0.4
vt 7.5 3.3
vt 4.5 3.3
vt 7.5 4.1
vt -4.5 3.3
vt -7.5 3.3
vt -7.5 4.1
vt 7.5 0.4
vt 7.5 0.5

usemtl customMaterial1 (Instance)
usemap customMaterial1 (Instance)
f 25/51/1 24/22/1 23/21/1
f 24/22/1 25/51/1 26/52/1
f 25/7/2 27/6/2 26/5/2
f 27/6/2 25/7/2 28/8/2
f 27/55/3 24/54/3 26/53/3
f 24/54/3 27/55/3 13/27/3
f 14/30/4 25/57/4 23/56/4
f 25/57/4 14/30/4 28/58/4
f 14/13/5 24/16/5 13/15/5
f 24/16/5 14/13/5 23/11/5
f 27/59/6 14/34/6 13/33/6
f 14/34/6 27/59/6 28/60/6
g block_default_5

v -6.25 0 0.5
v -6.25 0 0.4
v -8.25 0 0.5
v -8.25 0 0.4
v -8.25 4.1 0.4
v -8.25 4.1 0.5
v -6.25 4.1 0.4
v -6.25 4.1 0.5
vt 6.25 -0.5
vt 6.25 -0.4
vt 8.25 -0.5
vt 8.25 -0.4
vt 8.25 0
vt 6.25 0
vt 8.25 4.1
vt 6.25 4.1
vt -6.25 0
vt -8.25 0
vt -6.25 4.1
vt -8.25 4.1
vt 6.25 0.4
vt 6.25 0.5
vt 8.25 0.4
vt 8.25 0.5

usemtl customMaterial1 (Instance)
usemap customMaterial1 (Instance)
f 31/63/7 30/62/7 29/61/7
f 30/62/7 31/63/7 32/64/7
f 31/24/11 33/6/11 32/23/11
f 33/6/11 31/24/11 34/8/11
f 33/67/3 30/66/3 32/65/3
f 30/66/3 33/67/3 35/68/3
f 36/71/4 31/70/4 29/69/4
f 31/70/4 36/71/4 34/72/4
f 36/13/12 30/31/12 35/15/12
f 30/31/12 36/13/12 29/32/12
f 33/75/10 36/74/10 35/73/10
f 36/74/10 33/75/10 34/76/10
g block_default_6

v -8.1 3.3 0.5
v -8.1 3.3 0.4
v -11.1 3.3 0.5
v -11.1 3.3 0.4
v -11.1 4.1 0.4
v -11.1 4.1 0.5
v -8.1 4.1 0.4
v -8.1 4.1 0.5
vt 8.1 -0.5
vt 8.1 -0.4
vt 11.1 -0.5
vt 11.1 -0.4
vt 11.1 3.3
vt 8.1 3.3
vt 11.1 4.1
vt 8.1 4.1
vt -8.1 3.3
vt -11.1 3.3
vt -8.1 4.1
vt -11.1 4.1
vt 8.1 0.4
vt 8.1 0.5
vt 11.1 0.4
vt 11.1 0.5

usemtl customMaterial1 (Instance)
usemap customMaterial1 (Instance)
f 39/79/1 38/78/1 37/77/1
f 38/78/1 39/79/1 40/80/1
f 39/7/2 41/6/2 40/5/2
f 41/6/2 39/7/2 42/8/2
f 41/83/3 38/82/3 40/81/3
f 38/82/3 41/83/3 43/84/3
f 44/87/4 39/86/4 37/85/4
f 39/86/4 44/87/4 42/88/4
f 44/13/5 38/16/5 43/15/5
f 38/16/5 44/13/5 37/11/5
f 41/91/6 44/90/6 43/89/6
f 44/90/6 41/91/6 42/92/6
g block_default_7

v -13.3 0 0.5
v -13.3 0 0.4
v -15.3 0 0.5
v -15.3 0 0.4
v -15.3 4.1 0.4
v -15.3 4.1 0.5
v -13.3 4.1 0.4
v -13.3 4.1 0.5
vt 13.3 -0.5
vt 13.3 -0.4
vt 15.3 -0.5
vt 15.3 -0.4
vt 15.3 0
vt 13.3 0
vt 15.3 4.1
vt 13.3 4.1
vt -13.3 0
vt -15.3 0
vt -13.3 4.1
vt -15.3 4.1
vt 13.3 0.4
vt 13.3 0.5
vt 15.3 0.4
vt 15.3 0.5

usemtl customMaterial1 (Instance)
usemap customMaterial1 (Instance)
f 47/95/7 46/94/7 45/93/7
f 46/94/7 47/95/7 48/96/7
f 47/24/11 49/6/11 48/23/11
f 49/6/11 47/24/11 50/8/11
f 49/99/3 46/98/3 48/97/3
f 46/98/3 49/99/3 51/100/3
f 52/103/4 47/102/4 45/101/4
f 47/102/4 52/103/4 50/104/4
f 52/13/12 46/31/12 51/15/12
f 46/31/12 52/13/12 45/32/12
f 49/107/10 52/106/10 51/105/10
f 52/106/10 49/107/10 50/108/10
g block_default_8

v 0.85 0 0.5
v 0.85 0 0.4
v -1.15 0 0.5
v -1.15 0 0.4
v -1.15 4.1 0.4
v -1.15 4.1 0.5
v 0.85 4.1 0.4
v 0.85 4.1 0.5
vt -0.85 -0.5
vt -0.85 -0.4
vt 1.15 -0.5
vt 1.15 -0.4
vt 1.15 0
vt -0.85 0
vt 1.15 4.1
vt -0.85 4.1
vt 0.85 0
vt -1.15 0
vt 0.85 4.1
vt -1.15 4.1
vt -0.85 0.4
vt -0.85 0.5
vt 1.15 0.4
vt 1.15 0.5

usemtl customMaterial1 (Instance)
usemap customMaterial1 (Instance)
f 55/111/7 54/110/7 53/109/7
f 54/110/7 55/111/7 56/112/7
f 55/24/11 57/6/11 56/23/11
f 57/6/11 55/24/11 58/8/11
f 57/115/3 54/114/3 56/113/3
f 54/114/3 57/115/3 59/116/3
f 60/119/4 55/118/4 53/117/4
f 55/118/4 60/119/4 58/120/4
f 60/13/12 54/31/12 59/15/12
f 54/31/12 60/13/12 53/32/12
f 57/123/10 60/122/10 59/121/10
f 60/122/10 57/123/10 58/124/10
g block_default_9

v -11.2 3.3 0.5
v -11.2 3.3 0.4
v -14.2 3.3 0.5
v -14.2 3.3 0.4
v -14.2 4.1 0.4
v -14.2 4.1 0.5
v -11.2 4.1 0.4
v -11.2 4.1 0.5
vt 11.2 -0.5
vt 11.2 -0.4
vt 14.2 -0.5
vt 14.2 -0.4
vt 14.2 3.3
vt 11.2 3.3
vt 14.2 4.1
vt 11.2 4.1
vt -11.2 3.3
vt -14.2 3.3
vt -11.2 4.1
vt -14.2 4.1
vt 11.2 0.4
vt 11.2 0.5
vt 14.2 0.4
vt 14.2 0.5

usemtl customMaterial1 (Instance)
usemap customMaterial1 (Instance)
f 63/127/1 62/126/1 61/125/1
f 62/126/1 63/127/1 64/128/1
f 63/7/2 65/6/2 64/5/2
f 65/6/2 63/7/2 66/8/2
f 65/131/3 62/130/3 64/129/3
f 62/130/3 65/131/3 67/132/3
f 68/135/4 63/134/4 61/133/4
f 63/134/4 68/135/4 66/136/4
f 68/13/5 62/16/5 67/15/5
f 62/16/5 68/13/5 61/11/5
f 65/139/6 68/138/6 67/137/6
f 68/138/6 65/139/6 66/140/6
g block_default_10

v -9.7 0 0.5
v -9.7 0 0.4
v -11.7 0 0.5
v -11.7 0 0.4
v -11.7 4.1 0.4
v -11.7 4.1 0.5
v -9.7 4.1 0.4
v -9.7 4.1 0.5
vt 9.7 -0.5
vt 9.7 -0.4
vt 11.7 -0.5
vt 11.7 -0.4
vt 11.7 0
vt 9.7 0
vt 11.7 4.1
vt 9.7 4.1
vt -9.7 0
vt -11.7 0
vt -9.7 4.1
vt -11.7 4.1
vt 9.7 0.4
vt 9.7 0.5
vt 11.7 0.4
vt 11.7 0.5

usemtl customMaterial1 (Instance)
usemap customMaterial1 (Instance)
f 71/143/7 70/142/7 69/141/7
f 70/142/7 71/143/7 72/144/7
f 71/24/11 73/6/11 72/23/11
f 73/6/11 71/24/11 74/8/11
f 73/147/3 70/146/3 72/145/3
f 70/146/3 73/147/3 75/148/3
f 76/151/4 71/150/4 69/149/4
f 71/150/4 76/151/4 74/152/4
f 76/13/12 70/31/12 75/15/12
f 70/31/12 76/13/12 69/32/12
f 73/155/10 76/154/10 75/153/10
f 76/154/10 73/155/10 74/156/10
