# Made using Asset Forge (www.assetforge.io) version 1.3 

mtllib Platform.mtl 

g roof_helipad_50

v -0.4375 1.25 2.5
v -0.4375 1.2 2.5
v -0.4375 1.25 3.5
v -0.4375 1.2 3.5
v -0.5 1.2 2.4375
v -0.5 1.25 2.4375
v -0.5 1.3 2.4375
v -0.4375 1.3 2.5
v -0.5 1.2 3.5625
v -1.5 1.2 3.5625
v -1.5 1.2 2.4375
v -1.5625 1.2 3.5
v -1.5625 1.2 2.5
v -0.4375 1.3 3.5
v -0.5 1.3 3.5625
v -0.51 1.3 3
v -0.5266963 1.3 2.873179
v -0.5756476 1.3 2.755
v -0.6535177 1.3 2.653518
v -0.755 1.3 2.575648
v -0.8731787 1.3 2.526696
v -1.5 1.3 2.4375
v -1 1.3 2.51
v -1.126821 1.3 2.526696
v -1.245 1.3 2.575648
v -1.346482 1.3 2.653518
v -1.424352 1.3 2.755
v -1.473304 1.3 2.873179
v -1.49 1.3 3
v -0.5266963 1.3 3.126821
v -0.5756476 1.3 3.245
v -1.5 1.3 3.5625
v -1.473304 1.3 3.126821
v -1.424352 1.3 3.245
v -1.346482 1.3 3.346482
v -1.245 1.3 3.424352
v -1.126821 1.3 3.473304
v -1 1.3 3.49
v -0.8731787 1.3 3.473304
v -0.755 1.3 3.424352
v -0.6535177 1.3 3.346482
v -1.5625 1.3 2.5
v -1.5625 1.3 3.5
v -1.5625 1.25 2.5
v -1.5 1.25 2.4375
v -1.5625 1.25 3.5
v -1 1.3 2.582373
v -1.0712 1.3 2.79085
v -1.10809 1.3 2.596603
v -1.2492 1.3 2.79085
v -1.208814 1.3 2.638324
v -1.295307 1.3 2.704693
v -1.2492 1.3 3.20915
v -1.295307 1.3 3.295307
v -1.361676 1.3 3.208814
v -1.361676 1.3 2.791186
v -1.403397 1.3 2.89191
v -1.403397 1.3 3.10809
v -1.417627 1.3 3
v -1.208814 1.3 3.361676
v -1.10809 1.3 3.403397
v -1.0712 1.3 3.20915
v -1 1.3 3.417627
v -1.0712 1.3 3.07298
v -0.9288 1.3 3.20915
v -0.9288 1.3 3.07298
v -0.8919101 1.3 3.403397
v -0.7911865 1.3 3.361676
v -0.7508 1.3 3.20915
v -0.704693 1.3 3.295307
v -0.704693 1.3 2.704693
v -0.6383243 1.3 2.791186
v -0.6383243 1.3 3.208814
v -0.5966032 1.3 2.89191
v -0.5966032 1.3 3.10809
v -0.5823729 1.3 3
v -0.7508 1.3 2.79085
v -0.7911865 1.3 2.638324
v -0.9288 1.3 2.79085
v -0.8919101 1.3 2.596603
v -0.9288 1.3 2.92702
v -1.0712 1.3 2.92702
v -1.5 1.25 3.5625
v -0.5 1.25 3.5625
v -1.710743 1.329998 3.5
v -1.710743 1.329998 2.5
v -1.689846 1.368721 3.5
v -1.689846 1.368721 2.5
v -1.5 1.329998 2.289257
v -1.5 1.368721 2.310154
v -0.5 1.368721 2.310154
v -0.5 1.329998 2.289257
v -0.2892573 1.329998 3.5
v -0.2892573 1.329998 2.5
v -0.310154 1.368721 2.5
v -0.310154 1.368721 3.5
v -0.5 1.329998 3.710743
v -1.5 1.329998 3.710743
v -0.5 1.368721 3.689846
v -1.5 1.368721 3.689846
vn 1 0 0
vn 0.7071068 0 -0.7071068
vn 0.7071066 0 -0.7071069
vn 0.7071066 0 -0.7071069
vn 0.7071066 0 -0.7071069
vn 0 -1 0
vn 0 1 0
vn -0.7071068 0 -0.7071068
vn -1 0 0
vn 0 0 -1
vn -0.7071068 0 0.7071068
vn 0.7071068 0 0.7071068
vn 0 0 1
vn -0.4749042 -0.8800375 0
vn -0.8800374 0.4749044 0
vn 0.4749043 0.8800375 0
vn 0 0.8800375 0.4749043
vn 0 0.4749044 -0.8800374
vn 0 -0.8800376 -0.4749041
vn 0 -0.8800375 -0.4749042
vn 0.4749042 -0.8800375 0
vn 0.8800374 0.4749044 0
vn 0 0.4749044 0.8800374
vn 0 0.8800375 -0.4749043
vn 0 -0.8800375 0.4749042
vn -0.4749043 0.8800375 0
vt -2.5 1.25
vt -2.5 1.2
vt -3.5 1.25
vt -3.5 1.2
vt 0.5 1.2
vt 0.4375 1.2
vt 0.5 1.25
vt 0.4375 1.25
vt 0.5 1.3
vt 0.4375 1.3
vt 0.4375 -3.5
vt 0.4375 -2.5
vt 0.5 -3.5625
vt 0.5 -2.4375
vt 1.5 -3.5625
vt 1.5 -2.4375
vt 1.5625 -3.5
vt 1.5625 -2.5
vt 0.4375 2.5
vt 0.4375 3.5
vt 0.5 2.4375
vt 0.5 3.5625
vt 0.51 3
vt 0.5266963 2.873179
vt 0.5756476 2.755
vt 0.6535177 2.653518
vt 0.755 2.575648
vt 0.8731787 2.526696
vt 1.5 2.4375
vt 1 2.51
vt 1.126821 2.526696
vt 1.245 2.575648
vt 1.346482 2.653518
vt 1.424352 2.755
vt 1.473304 2.873179
vt 1.49 3
vt 0.5266963 3.126821
vt 0.5756476 3.245
vt 1.5 3.5625
vt 1.473304 3.126821
vt 1.424352 3.245
vt 1.346482 3.346482
vt 1.245 3.424352
vt 1.126821 3.473304
vt 1 3.49
vt 0.8731787 3.473304
vt 0.755 3.424352
vt 0.6535177 3.346482
vt 1.5625 2.5
vt 1.5625 3.5
vt 1.5625 1.2
vt 1.5 1.2
vt 1.5625 1.25
vt 1.5 1.25
vt 1.5625 1.3
vt 1.5 1.3
vt 2.5 1.2
vt 2.5 1.25
vt 3.5 1.2
vt 3.5 1.25
vt 1 2.582373
vt 1.0712 2.79085
vt 1.10809 2.596603
vt 1.2492 2.79085
vt 1.208814 2.638324
vt 1.295307 2.704693
vt 1.2492 3.20915
vt 1.295307 3.295307
vt 1.361676 3.208814
vt 1.361676 2.791186
vt 1.403397 2.89191
vt 1.403397 3.10809
vt 1.417627 3
vt 1.208814 3.361676
vt 1.10809 3.403397
vt 1.0712 3.20915
vt 1 3.417627
vt 1.0712 3.07298
vt 0.9288 3.20915
vt 0.9288 3.07298
vt 0.8919101 3.403397
vt 0.7911865 3.361676
vt 0.7508 3.20915
vt 0.704693 3.295307
vt 0.704693 2.704693
vt 0.6383243 2.791186
vt 0.6383243 3.208814
vt 0.5966032 2.89191
vt 0.5966032 3.10809
vt 0.5823729 3
vt 0.7508 2.79085
vt 0.7911865 2.638324
vt 0.9288 2.79085
vt 0.8919101 2.596603
vt 0.9288 2.92702
vt 1.0712 2.92702
vt -1.5 1.2
vt -1.5625 1.2
vt -1.5 1.25
vt -1.5625 1.25
vt -1.5 1.3
vt -1.5625 1.3
vt -0.4375 1.2
vt -0.5 1.2
vt -0.4375 1.25
vt -0.5 1.25
vt -0.4375 1.3
vt -0.5 1.3
vt 1.710743 -3.5
vt 1.710743 -2.5
vt -1.710743 1.329998
vt -1.689846 1.368721
vt 2.5 1.368721
vt 3.5 1.368721
vt 2.5 1.329998
vt 3.5 1.329998
vt 1.710743 1.329998
vt 1.689846 1.368721
vt 1.689846 2.5
vt 1.689846 3.5
vt 2.289257 1.329998
vt 2.310154 1.368721
vt 2.4375 1.25
vt 2.4375 1.3
vt 0.5 2.310154
vt 1.5 2.310154
vt -2.289257 1.329998
vt -2.4375 1.25
vt -2.310154 1.368721
vt -2.4375 1.3
vt 1.5 1.329998
vt 0.5 1.329998
vt 1.5 1.368721
vt 0.5 1.368721
vt 0.5 -2.289257
vt 1.5 -2.289257
vt 0.2892573 -3.5
vt 0.2892573 -2.5
vt -2.5 1.329998
vt -3.5 1.329998
vt -2.5 1.368721
vt -3.5 1.368721
vt -0.5 1.329998
vt -1.5 1.329998
vt -0.5 1.368721
vt -1.5 1.368721
vt -3.5625 1.3
vt -3.5625 1.25
vt -3.689846 1.368721
vt -3.710743 1.329998
vt 0.5 3.689846
vt 1.5 3.689846
vt 0.5 -3.710743
vt 1.5 -3.710743
vt 3.5625 1.25
vt 3.5625 1.3
vt 3.710743 1.329998
vt 3.689846 1.368721
vt 0.2892573 1.329998
vt 0.310154 1.368721
vt 0.310154 3.5
vt 0.310154 2.5
vt -0.2892573 1.329998
vt -0.310154 1.368721
vt -0.9288 1.3

usemtl stone (Instance)
usemap stone (Instance)
f 3/3/1 2/2/1 1/1/1
f 2/2/1 3/3/1 4/4/1
f 6/7/4 2/6/3 5/5/2
f 2/6/3 6/7/4 1/8/4
f 1/8/4 6/7/4 7/9/5
f 1/8/4 7/9/5 8/10/2
f 9/13/6 2/12/6 4/11/6
f 2/12/6 9/13/6 5/14/6
f 5/14/6 9/13/6 10/15/6
f 5/14/6 10/15/6 11/16/6
f 11/16/6 10/15/6 12/17/6
f 11/16/6 12/17/6 13/18/6
f 7/21/7 14/20/7 8/19/7
f 14/20/7 7/21/7 15/22/7
f 15/22/7 7/21/7 16/23/7
f 16/23/7 7/21/7 17/24/7
f 17/24/7 7/21/7 18/25/7
f 18/25/7 7/21/7 19/26/7
f 19/26/7 7/21/7 20/27/7
f 20/27/7 7/21/7 21/28/7
f 21/28/7 7/21/7 22/29/7
f 21/28/7 22/29/7 23/30/7
f 23/30/7 22/29/7 24/31/7
f 24/31/7 22/29/7 25/32/7
f 25/32/7 22/29/7 26/33/7
f 26/33/7 22/29/7 27/34/7
f 27/34/7 22/29/7 28/35/7
f 28/35/7 22/29/7 29/36/7
f 30/37/7 15/22/7 16/23/7
f 31/38/7 15/22/7 30/37/7
f 32/39/7 29/36/7 22/29/7
f 32/39/7 33/40/7 29/36/7
f 32/39/7 34/41/7 33/40/7
f 32/39/7 35/42/7 34/41/7
f 32/39/7 36/43/7 35/42/7
f 32/39/7 37/44/7 36/43/7
f 32/39/7 38/45/7 37/44/7
f 32/39/7 39/46/7 38/45/7
f 15/22/7 39/46/7 32/39/7
f 39/46/7 15/22/7 40/47/7
f 40/47/7 15/22/7 41/48/7
f 41/48/7 15/22/7 31/38/7
f 32/39/7 22/29/7 42/49/7
f 32/39/7 42/49/7 43/50/7
f 44/53/8 11/52/8 13/51/8
f 11/52/8 44/53/8 45/54/8
f 45/54/8 44/53/8 42/55/8
f 45/54/8 42/55/8 22/56/8
f 12/59/9 44/58/9 13/57/9
f 44/58/9 12/59/9 46/60/9
f 45/54/10 5/5/10 11/52/10
f 5/5/10 45/54/10 6/7/10
f 49/63/7 48/62/7 47/61/7
f 48/62/7 49/63/7 50/64/7
f 50/64/7 49/63/7 51/65/7
f 50/64/7 51/65/7 52/66/7
f 50/64/7 52/66/7 53/67/7
f 53/67/7 52/66/7 54/68/7
f 54/68/7 52/66/7 55/69/7
f 55/69/7 52/66/7 56/70/7
f 55/69/7 56/70/7 57/71/7
f 55/69/7 57/71/7 58/72/7
f 58/72/7 57/71/7 59/73/7
f 60/74/7 53/67/7 54/68/7
f 61/75/7 53/67/7 60/74/7
f 61/75/7 62/76/7 53/67/7
f 63/77/7 62/76/7 61/75/7
f 63/77/7 64/78/7 62/76/7
f 65/79/7 64/78/7 63/77/7
f 64/78/7 65/79/7 66/80/7
f 67/81/7 65/79/7 63/77/7
f 68/82/7 65/79/7 67/81/7
f 68/82/7 69/83/7 65/79/7
f 70/84/7 69/83/7 68/82/7
f 70/84/7 71/85/7 69/83/7
f 70/84/7 72/86/7 71/85/7
f 73/87/7 72/86/7 70/84/7
f 73/87/7 74/88/7 72/86/7
f 75/89/7 74/88/7 73/87/7
f 74/88/7 75/89/7 76/90/7
f 69/83/7 71/85/7 77/91/7
f 78/92/7 77/91/7 71/85/7
f 77/91/7 78/92/7 79/93/7
f 79/93/7 78/92/7 80/94/7
f 79/93/7 80/94/7 47/61/7
f 79/93/7 47/61/7 81/95/7
f 81/95/7 47/61/7 82/96/7
f 82/96/7 47/61/7 48/62/7
f 83/99/11 12/98/11 10/97/11
f 12/98/11 83/99/11 46/100/11
f 46/100/11 83/99/11 32/101/11
f 46/100/11 32/101/11 43/102/11
f 3/105/12 9/104/12 4/103/12
f 9/104/12 3/105/12 84/106/12
f 84/106/12 3/105/12 14/107/12
f 84/106/12 14/107/12 15/108/12
f 84/106/13 10/97/13 9/104/13
f 10/97/13 84/106/13 83/99/13

usemtl lightStone (Instance)
usemap lightStone (Instance)
f 85/109/14 44/18/14 46/17/14
f 44/18/14 85/109/14 86/110/14
f 43/102/13 85/111/13 46/100/13
f 85/111/13 43/102/13 87/112/13
f 86/115/15 87/114/15 88/113/15
f 87/114/15 86/115/15 85/116/15
f 86/117/10 42/55/10 44/53/10
f 42/55/10 86/117/10 88/118/10
f 88/119/16 43/50/16 42/49/16
f 43/50/16 88/119/16 87/120/16
f 45/123/9 90/122/9 89/121/9
f 90/122/9 45/123/9 22/124/9
f 90/126/17 7/21/17 91/125/17
f 7/21/17 90/126/17 22/29/17
f 91/129/1 6/128/1 92/127/1
f 6/128/1 91/129/1 7/130/1
f 90/133/18 92/132/18 89/131/18
f 92/132/18 90/133/18 91/134/18
f 6/14/19 89/136/19 92/135/19
f 89/136/19 6/14/19 45/16/20
f 3/11/21 94/138/21 93/137/21
f 94/138/21 3/11/21 1/12/21
f 95/141/22 93/140/22 94/139/22
f 93/140/22 95/141/22 96/142/22
f 99/145/23 98/144/23 97/143/23
f 98/144/23 99/145/23 100/146/23
f 99/149/1 84/148/1 15/147/1
f 84/148/1 99/149/1 97/150/1
f 32/39/24 99/151/24 15/22/24
f 99/151/24 32/39/24 100/152/24
f 98/154/25 84/13/25 97/153/25
f 84/13/25 98/154/25 83/15/25
f 98/157/9 32/156/9 83/155/9
f 32/156/9 98/157/9 100/158/9
f 8/10/10 94/159/10 1/8/10
f 94/159/10 8/10/10 95/160/10
f 95/162/26 14/20/26 96/161/26
f 14/20/26 95/162/26 8/19/26
f 93/163/13 14/107/13 3/105/13
f 14/107/13 93/163/13 96/164/13

usemtl _defaultMat (Instance)
usemap _defaultMat (Instance)
f 50/64/7 82/96/7 48/62/7
f 82/96/7 50/64/7 64/78/7
f 64/78/7 50/64/7 62/76/7
f 62/76/7 50/64/7 53/67/7
f 82/96/7 66/80/7 81/95/7
f 66/80/7 82/96/7 64/78/7
f 79/93/7 69/83/7 77/91/7
f 69/83/7 79/93/7 65/79/7
f 65/165/7 79/165/7 81/165/7
f 65/165/7 81/165/7 66/165/7
f 18/25/7 74/88/7 76/90/7
f 74/88/7 18/25/7 19/26/7
f 74/88/7 19/26/7 72/86/7
f 72/86/7 19/26/7 71/85/7
f 71/85/7 19/26/7 20/27/7
f 71/85/7 20/27/7 78/92/7
f 78/92/7 20/27/7 21/28/7
f 78/92/7 21/28/7 80/94/7
f 80/94/7 21/28/7 23/30/7
f 80/94/7 23/30/7 47/61/7
f 47/61/7 23/30/7 24/31/7
f 47/61/7 24/31/7 49/63/7
f 49/63/7 24/31/7 51/65/7
f 51/65/7 24/31/7 25/32/7
f 51/65/7 25/32/7 52/66/7
f 52/66/7 25/32/7 26/33/7
f 52/66/7 26/33/7 56/70/7
f 56/70/7 26/33/7 27/34/7
f 56/70/7 27/34/7 57/71/7
f 57/71/7 27/34/7 59/73/7
f 59/73/7 27/34/7 34/41/7
f 34/41/7 27/34/7 33/40/7
f 33/40/7 27/34/7 28/35/7
f 33/40/7 28/35/7 29/36/7
f 17/24/7 30/37/7 16/23/7
f 30/37/7 17/24/7 31/38/7
f 31/38/7 17/24/7 18/25/7
f 31/38/7 18/25/7 76/90/7
f 31/38/7 76/90/7 75/89/7
f 31/38/7 75/89/7 41/48/7
f 41/48/7 75/89/7 73/87/7
f 41/48/7 73/87/7 70/84/7
f 41/48/7 70/84/7 40/47/7
f 40/47/7 70/84/7 68/82/7
f 40/47/7 68/82/7 39/46/7
f 39/46/7 68/82/7 67/81/7
f 39/46/7 67/81/7 38/45/7
f 38/45/7 67/81/7 63/77/7
f 38/45/7 63/77/7 61/75/7
f 38/45/7 61/75/7 37/44/7
f 37/44/7 61/75/7 60/74/7
f 37/44/7 60/74/7 36/43/7
f 36/43/7 60/74/7 54/68/7
f 36/43/7 54/68/7 35/42/7
f 35/42/7 54/68/7 55/69/7
f 35/42/7 55/69/7 34/41/7
f 34/41/7 55/69/7 58/72/7
f 34/41/7 58/72/7 59/73/7
g block_default_51

v -0.5 0 3.5
v -0.5 0 2.5
v -1.5 0 3.5
v -1.5 0 2.5
v -1.5 1.2 2.5
v -1.5 1.2 3.5
v -0.5 1.2 2.5
v -0.5 1.2 3.5
vn 0 -1.2 0
vn 0 1.2 0
vt 0.5 -3.5
vt 0.5 -2.5
vt 1.5 -3.5
vt 1.5 -2.5
vt 2.5 0
vt 2.5 1.2
vt 3.5 0
vt 3.5 1.2
vt 1.5 0
vt 0.5 0
vt 1.5 1.2
vt 0.5 1.2
vt -0.5 0
vt -1.5 0
vt -0.5 1.2
vt -1.5 1.2
vt -2.5 1.2
vt -2.5 0
vt -3.5 1.2
vt -3.5 0
vt 0.5 2.5
vt 0.5 3.5
vt 1.5 2.5
vt 1.5 3.5

usemtl _defaultMat (Instance) (Instance)
usemap _defaultMat (Instance) (Instance)
f 103/168/27 102/167/27 101/166/27
f 102/167/27 103/168/27 104/169/27
f 103/172/9 105/171/9 104/170/9
f 105/171/9 103/172/9 106/173/9
f 105/176/10 102/175/10 104/174/10
f 102/175/10 105/176/10 107/177/10
f 108/180/13 103/179/13 101/178/13
f 103/179/13 108/180/13 106/181/13
f 108/184/1 102/183/1 107/182/1
f 102/183/1 108/184/1 101/185/1
f 105/188/28 108/187/28 107/186/28
f 108/187/28 105/188/28 106/189/28
