# Made using Asset Forge (www.assetforge.io) version 1.3 

mtllib Tightropes.mtl 

g block_default_0

v 2 0 5.1
v 2 0 -0.5
v 1.5 0 5.1
v 1.5 0 -0.5
v 1.5 0.1 -0.5
v 1.5 0.1 5.1
v 2 0.1 -0.5
v 2 0.1 5.1
vn 0 -0.1 0
vn -0.5 0 0
vn 0 0 -5.6
vn 0 0 5.6
vn 0.5 0 0
vn 0 0.1 0
vt -2 -5.1
vt -2 0.5
vt -1.5 -5.1
vt -1.5 0.5
vt -0.5 0
vt -0.5 0.1
vt 5.1 0
vt 5.1 0.1
vt -1.5 0
vt -2 0
vt -1.5 0.1
vt -2 0.1
vt 2 0
vt 1.5 0
vt 2 0.1
vt 1.5 0.1
vt 0.5 0.1
vt 0.5 0
vt -5.1 0.1
vt -5.1 0
vt -2 -0.5
vt -2 5.1
vt -1.5 -0.5
vt -1.5 5.1

usemtl _defaultMat (Instance)
usemap _defaultMat (Instance)
f 3/3/1 2/2/1 1/1/1
f 2/2/1 3/3/1 4/4/1
f 3/7/2 5/6/2 4/5/2
f 5/6/2 3/7/2 6/8/2
f 5/11/3 2/10/3 4/9/3
f 2/10/3 5/11/3 7/12/3
f 8/15/4 3/14/4 1/13/4
f 3/14/4 8/15/4 6/16/4
f 8/19/5 2/18/5 7/17/5
f 2/18/5 8/19/5 1/20/5
f 5/23/6 8/22/6 7/21/6
f 8/22/6 5/23/6 6/24/6
g block_default_1

v -1.5 0 5.1
v -1.5 0 -0.5
v -2 0 5.1
v -2 0 -0.5
v -2 0.1 -0.5
v -2 0.1 5.1
v -1.5 0.1 -0.5
v -1.5 0.1 5.1
vt 1.5 -5.1
vt 1.5 0.5
vt 2 -5.1
vt 2 0.5
vt 1.5 -0.5
vt 1.5 5.1
vt 2 -0.5
vt 2 5.1

usemtl _defaultMat (Instance) (Instance)
usemap _defaultMat (Instance) (Instance)
f 11/27/1 10/26/1 9/25/1
f 10/26/1 11/27/1 12/28/1
f 11/7/2 13/6/2 12/5/2
f 13/6/2 11/7/2 14/8/2
f 13/15/3 10/14/3 12/13/3
f 10/14/3 13/15/3 15/16/3
f 16/11/4 11/10/4 9/9/4
f 11/10/4 16/11/4 14/12/4
f 16/19/5 10/18/5 15/17/5
f 10/18/5 16/19/5 9/20/5
f 13/31/6 16/30/6 15/29/6
f 16/30/6 13/31/6 14/32/6
g block_default_2

v -5.55 0 2.55
v -1.95 0 2.55
v -5.55 0 2.05
v -1.95 0 2.05
v -1.95 0.1 2.05
v -5.55 0.1 2.05
v -1.95 0.1 2.55
v -5.55 0.1 2.55
vn 5.960464E-08 0 -0.5000001
vn 3.6 0 4.768372E-07
vn -3.6 0 -4.768372E-07
vn -5.960464E-08 0 0.5000001
vt 5.55 -2.55
vt 1.95 -2.55
vt 5.55 -2.05
vt 1.95 -2.05
vt 1.95 0
vt 1.95 0.1
vt 5.55 0
vt 5.55 0.1
vt -2.05 0
vt -2.55 0
vt -2.05 0.1
vt -2.55 0.1
vt 2.55 0
vt 2.05 0
vt 2.55 0.1
vt 2.05 0.1
vt -1.95 0.1
vt -1.95 0
vt -5.55 0.1
vt -5.55 0
vt 1.95 2.55
vt 5.55 2.55
vt 1.95 2.05
vt 5.55 2.05

usemtl _defaultMat (Instance) (Instance)
usemap _defaultMat (Instance) (Instance)
f 19/35/1 18/34/1 17/33/1
f 18/34/1 19/35/1 20/36/1
f 19/39/7 21/38/7 20/37/7
f 21/38/7 19/39/7 22/40/7
f 21/43/8 18/42/8 20/41/8
f 18/42/8 21/43/8 23/44/8
f 24/47/9 19/46/9 17/45/9
f 19/46/9 24/47/9 22/48/9
f 24/51/10 18/50/10 23/49/10
f 18/50/10 24/51/10 17/52/10
f 21/55/6 24/54/6 23/53/6
f 24/54/6 21/55/6 22/56/6
g block_default_3

v -5.95 0 5.55
v -1.55 0 5.55
v -5.95 0 5.05
v -1.55 0 5.05
v -1.55 0.1 5.05
v -5.95 0.1 5.05
v -1.55 0.1 5.55
v -5.95 0.1 5.55
vn 4.400001 0 4.768372E-07
vn -4.400001 0 -4.768372E-07
vt 5.95 -5.55
vt 1.55 -5.550001
vt 5.95 -5.05
vt 1.55 -5.05
vt 1.55 0
vt 1.55 0.1
vt 5.95 0
vt 5.95 0.1
vt -5.05 0
vt -5.550001 0
vt -5.05 0.1
vt -5.550001 0.1
vt 5.05 0
vt 5.05 0.1
vt -1.55 0.1
vt -1.55 0
vt -5.95 0.1
vt -5.95 0
vt 1.55 5.550001
vt 5.95 5.55
vt 1.55 5.05
vt 5.95 5.05

usemtl _defaultMat (Instance) (Instance)
usemap _defaultMat (Instance) (Instance)
f 27/59/1 26/58/1 25/57/1
f 26/58/1 27/59/1 28/60/1
f 27/63/7 29/62/7 28/61/7
f 29/62/7 27/63/7 30/64/7
f 29/67/11 26/66/11 28/65/11
f 26/66/11 29/67/11 31/68/11
f 32/40/12 27/69/12 25/39/12
f 27/69/12 32/40/12 30/70/12
f 32/73/10 26/72/10 31/71/10
f 26/72/10 32/73/10 25/74/10
f 29/77/6 32/76/6 31/75/6
f 32/76/6 29/77/6 30/78/6
g block_default_4

v 1.55 0 5.55
v 5.95 0 5.55
v 1.55 0 5.05
v 5.95 0 5.05
v 5.95 0.1 5.05
v 1.55 0.1 5.05
v 5.95 0.1 5.55
v 1.55 0.1 5.55
vt -1.55 -5.55
vt -5.95 -5.550001
vt -1.55 -5.05
vt -5.95 -5.05
vt -5.95 5.550001
vt -1.55 5.55
vt -5.95 5.05
vt -1.55 5.05

usemtl _defaultMat (Instance) (Instance)
usemap _defaultMat (Instance) (Instance)
f 35/81/1 34/80/1 33/79/1
f 34/80/1 35/81/1 36/82/1
f 35/72/7 37/73/7 36/74/7
f 37/73/7 35/72/7 38/71/7
f 37/67/11 34/66/11 36/65/11
f 34/66/11 37/67/11 39/68/11
f 40/40/12 35/69/12 33/39/12
f 35/69/12 40/40/12 38/70/12
f 40/62/10 34/63/10 39/64/10
f 34/63/10 40/62/10 33/61/10
f 37/85/6 40/84/6 39/83/6
f 40/84/6 37/85/6 38/86/6
g block_default_5

v 4.2 0 15.1
v 4.2 0 5.1
v 3.7 0 15.1
v 3.7 0 5.1
v 3.7 0.1 5.1
v 3.7 0.1 15.1
v 4.2 0.1 5.1
v 4.2 0.1 15.1
vn 0 0 -10
vn 0 0 10
vt -4.2 -15.1
vt -4.2 -5.1
vt -3.7 -15.1
vt -3.7 -5.1
vt 5.1 0
vt 5.1 0.1
vt 15.1 0
vt 15.1 0.1
vt -3.7 0
vt -4.2 0
vt -3.7 0.1
vt -4.2 0.1
vt 4.2 0
vt 3.7 0
vt 4.2 0.1
vt 3.7 0.1
vt -5.1 0.1
vt -5.1 0
vt -15.1 0.1
vt -15.1 0
vt -4.2 5.1
vt -4.2 15.1
vt -3.7 5.1
vt -3.7 15.1

usemtl _defaultMat (Instance) (Instance)
usemap _defaultMat (Instance) (Instance)
f 43/89/1 42/88/1 41/87/1
f 42/88/1 43/89/1 44/90/1
f 43/93/2 45/92/2 44/91/2
f 45/92/2 43/93/2 46/94/2
f 45/97/13 42/96/13 44/95/13
f 42/96/13 45/97/13 47/98/13
f 48/101/14 43/100/14 41/99/14
f 43/100/14 48/101/14 46/102/14
f 48/105/5 42/104/5 47/103/5
f 42/104/5 48/105/5 41/106/5
f 45/109/6 48/108/6 47/107/6
f 48/108/6 45/109/6 46/110/6
g block_default_6

v -3.7 0 15.1
v -3.7 0 5.1
v -4.2 0 15.1
v -4.2 0 5.1
v -4.2 0.1 5.1
v -4.2 0.1 15.1
v -3.7 0.1 5.1
v -3.7 0.1 15.1
vt 3.7 -15.1
vt 3.7 -5.1
vt 4.2 -15.1
vt 4.2 -5.1
vt 3.7 5.1
vt 3.7 15.1
vt 4.2 5.1
vt 4.2 15.1

usemtl _defaultMat (Instance) (Instance)
usemap _defaultMat (Instance) (Instance)
f 51/113/1 50/112/1 49/111/1
f 50/112/1 51/113/1 52/114/1
f 51/93/2 53/92/2 52/91/2
f 53/92/2 51/93/2 54/94/2
f 53/101/13 50/100/13 52/99/13
f 50/100/13 53/101/13 55/102/13
f 56/97/14 51/96/14 49/95/14
f 51/96/14 56/97/14 54/98/14
f 56/105/5 50/104/5 55/103/5
f 50/104/5 56/105/5 49/106/5
f 53/117/6 56/116/6 55/115/6
f 56/116/6 53/117/6 54/118/6
g block_default_7

v -6.05 0 9.85
v -1.85 0 9.85
v -6.05 0 9.35
v -1.85 0 9.35
v -1.85 0.1 9.35
v -6.05 0.1 9.35
v -1.85 0.1 9.85
v -6.05 0.1 9.85
vn 4.2 0 4.768372E-07
vn -4.2 0 -4.768372E-07
vt 6.05 -9.85
vt 1.85 -9.85
vt 6.05 -9.35
vt 1.85 -9.35
vt 1.85 0
vt 1.85 0.1
vt 6.05 0
vt 6.05 0.1
vt -9.35 0
vt -9.85 0
vt -9.35 0.1
vt -9.85 0.1
vt 9.85 0
vt 9.35 0
vt 9.85 0.1
vt 9.35 0.1
vt -1.85 0.1
vt -1.85 0
vt -6.05 0.1
vt -6.05 0
vt 1.85 9.85
vt 6.05 9.85
vt 1.85 9.35
vt 6.05 9.35

usemtl _defaultMat (Instance) (Instance)
usemap _defaultMat (Instance) (Instance)
f 59/121/1 58/120/1 57/119/1
f 58/120/1 59/121/1 60/122/1
f 59/125/7 61/124/7 60/123/7
f 61/124/7 59/125/7 62/126/7
f 61/129/15 58/128/15 60/127/15
f 58/128/15 61/129/15 63/130/15
f 64/133/16 59/132/16 57/131/16
f 59/132/16 64/133/16 62/134/16
f 64/137/10 58/136/10 63/135/10
f 58/136/10 64/137/10 57/138/10
f 61/141/6 64/140/6 63/139/6
f 64/140/6 61/141/6 62/142/6
g block_default_8

v 1.85 0 9.85
v 6.05 0 9.85
v 1.85 0 9.35
v 6.05 0 9.35
v 6.05 0.1 9.35
v 1.85 0.1 9.35
v 6.05 0.1 9.85
v 1.85 0.1 9.85
vt -1.85 -9.85
vt -6.05 -9.85
vt -1.85 -9.35
vt -6.05 -9.35
vt -6.05 9.85
vt -1.85 9.85
vt -6.05 9.35
vt -1.85 9.35

usemtl _defaultMat (Instance) (Instance)
usemap _defaultMat (Instance) (Instance)
f 67/145/1 66/144/1 65/143/1
f 66/144/1 67/145/1 68/146/1
f 67/136/7 69/137/7 68/138/7
f 69/137/7 67/136/7 70/135/7
f 69/129/15 66/128/15 68/127/15
f 66/128/15 69/129/15 71/130/15
f 72/133/16 67/132/16 65/131/16
f 67/132/16 72/133/16 70/134/16
f 72/124/10 66/125/10 71/126/10
f 66/125/10 72/124/10 65/123/10
f 69/149/6 72/148/6 71/147/6
f 72/148/6 69/149/6 70/150/6
g block_default_9

v -5.850001 0 15.25
v 5.850001 0 15.25
v -5.850001 0 14.75
v 5.850001 0 14.75
v 5.850001 0.1 14.75
v -5.850001 0.1 14.75
v 5.850001 0.1 15.25
v -5.850001 0.1 15.25
vn 5.960464E-08 0 -0.500001
vn 11.7 0 9.536743E-07
vn -11.7 0 -9.536743E-07
vn -5.960464E-08 0 0.500001
vt 5.850001 -15.25
vt -5.850001 -15.25
vt 5.850001 -14.75
vt -5.850001 -14.75
vt -5.850001 0
vt -5.850001 0.1
vt 5.850001 0
vt 5.850001 0.1
vt -14.75 0
vt -15.25 0
vt -14.75 0.1
vt -15.25 0.1
vt 15.25 0
vt 14.75 0
vt 15.25 0.1
vt 14.75 0.1
vt -5.850001 15.25
vt 5.850001 15.25
vt -5.850001 14.75
vt 5.850001 14.75

usemtl _defaultMat (Instance) (Instance) (Instance)
usemap _defaultMat (Instance) (Instance) (Instance)
f 75/153/1 74/152/1 73/151/1
f 74/152/1 75/153/1 76/154/1
f 75/157/17 77/156/17 76/155/17
f 77/156/17 75/157/17 78/158/17
f 77/161/18 74/160/18 76/159/18
f 74/160/18 77/161/18 79/162/18
f 80/165/19 75/164/19 73/163/19
f 75/164/19 80/165/19 78/166/19
f 80/156/20 74/157/20 79/158/20
f 74/157/20 80/156/20 73/155/20
f 77/169/6 80/168/6 79/167/6
f 80/168/6 77/169/6 78/170/6
g block_default_10

v -1.3 0 18.5
v -1.3 0 14.8
v -1.8 0 18.5
v -1.8 0 14.8
v -1.8 0.1 14.8
v -1.8 0.1 18.5
v -1.3 0.1 14.8
v -1.3 0.1 18.5
vn 0 0 -3.7
vn 0 0 3.7
vt 1.3 -18.5
vt 1.3 -14.8
vt 1.8 -18.5
vt 1.8 -14.8
vt 14.8 0
vt 14.8 0.1
vt 18.5 0
vt 18.5 0.1
vt 1.8 0
vt 1.3 0
vt 1.8 0.1
vt 1.3 0.1
vt -1.3 0
vt -1.8 0
vt -1.3 0.1
vt -1.8 0.1
vt -14.8 0.1
vt -14.8 0
vt -18.5 0.1
vt -18.5 0
vt 1.3 14.8
vt 1.3 18.5
vt 1.8 14.8
vt 1.8 18.5

usemtl _defaultMat (Instance) (Instance) (Instance)
usemap _defaultMat (Instance) (Instance) (Instance)
f 83/173/1 82/172/1 81/171/1
f 82/172/1 83/173/1 84/174/1
f 83/177/2 85/176/2 84/175/2
f 85/176/2 83/177/2 86/178/2
f 85/181/21 82/180/21 84/179/21
f 82/180/21 85/181/21 87/182/21
f 88/185/22 83/184/22 81/183/22
f 83/184/22 88/185/22 86/186/22
f 88/189/5 82/188/5 87/187/5
f 82/188/5 88/189/5 81/190/5
f 85/193/6 88/192/6 87/191/6
f 88/192/6 85/193/6 86/194/6
g block_default_11

v 1.8 0 18.5
v 1.8 0 14.8
v 1.3 0 18.5
v 1.3 0 14.8
v 1.3 0.1 14.8
v 1.3 0.1 18.5
v 1.8 0.1 14.8
v 1.8 0.1 18.5
vt -1.8 -18.5
vt -1.8 -14.8
vt -1.3 -18.5
vt -1.3 -14.8
vt -1.3 0
vt -1.8 0
vt -1.3 0.1
vt -1.8 0.1
vt 1.8 0
vt 1.3 0
vt 1.8 0.1
vt 1.3 0.1
vt -1.8 14.8
vt -1.8 18.5
vt -1.3 14.8
vt -1.3 18.5

usemtl _defaultMat (Instance) (Instance) (Instance) (Instance)
usemap _defaultMat (Instance) (Instance) (Instance) (Instance)
f 91/197/1 90/196/1 89/195/1
f 90/196/1 91/197/1 92/198/1
f 91/177/2 93/176/2 92/175/2
f 93/176/2 91/177/2 94/178/2
f 93/201/21 90/200/21 92/199/21
f 90/200/21 93/201/21 95/202/21
f 96/205/22 91/204/22 89/203/22
f 91/204/22 96/205/22 94/206/22
f 96/189/5 90/188/5 95/187/5
f 90/188/5 96/189/5 89/190/5
f 93/209/6 96/208/6 95/207/6
f 96/208/6 93/209/6 94/210/6
g block_default_12

v 1.95 0 2.55
v 5.55 0 2.55
v 1.95 0 2.05
v 5.55 0 2.05
v 5.55 0.1 2.05
v 1.95 0.1 2.05
v 5.55 0.1 2.55
v 1.95 0.1 2.55
vt -1.95 -2.55
vt -5.55 -2.55
vt -1.95 -2.05
vt -5.55 -2.05
vt -5.55 2.55
vt -1.95 2.55
vt -5.55 2.05
vt -1.95 2.05

usemtl _defaultMat (Instance) (Instance) (Instance)
usemap _defaultMat (Instance) (Instance) (Instance)
f 99/213/1 98/212/1 97/211/1
f 98/212/1 99/213/1 100/214/1
f 99/50/7 101/51/7 100/52/7
f 101/51/7 99/50/7 102/49/7
f 101/43/8 98/42/8 100/41/8
f 98/42/8 101/43/8 103/44/8
f 104/47/9 99/46/9 97/45/9
f 99/46/9 104/47/9 102/48/9
f 104/38/10 98/39/10 103/40/10
f 98/39/10 104/38/10 97/37/10
f 101/217/6 104/216/6 103/215/6
f 104/216/6 101/217/6 102/218/6
