# Made using Asset Forge (www.assetforge.io) version 1.3 

mtllib Level2.mtl 

g block_default_0

v 0.5 -0.1 3
v 0.5 -0.1 -0.5
v -0.5 -0.1 3
v -0.5 -0.1 -0.5
v -0.5 0 -0.5
v -0.5 0 3
v 0.5 0 -0.5
v 0.5 0 3
vn 0 -0.1 0
vn -1 0 0
vn 0 0 -3.5
vn 0 0 3.5
vn 1 0 0
vn 0 0.1 0
vt -0.5 -3
vt -0.5 0.5
vt 0.5 -3
vt 0.5 0.5
vt -0.5 -0.1
vt -0.5 0
vt 3 -0.1
vt 3 0
vt 0.5 -0.1
vt 0.5 0
vt -3 0
vt -3 -0.1
vt -0.5 -0.5
vt -0.5 3
vt 0.5 -0.5
vt 0.5 3

usemtl _defaultMat (Instance)
usemap _defaultMat (Instance)
f 3/3/1 2/2/1 1/1/1
f 2/2/1 3/3/1 4/4/1
f 3/7/2 5/6/2 4/5/2
f 5/6/2 3/7/2 6/8/2
f 5/10/3 2/5/3 4/9/3
f 2/5/3 5/10/3 7/6/3
f 8/10/4 3/5/4 1/9/4
f 3/5/4 8/10/4 6/6/4
f 8/11/5 2/9/5 7/10/5
f 2/9/5 8/11/5 1/12/5
f 5/15/6 8/14/6 7/13/6
f 8/14/6 5/15/6 6/16/6
g block_default_2

v -0.5 -0.1 0.6
v -13.4 -0.1 0.6
v -13.4 -0.1 -0.5
v -13.4 0 -0.5
v -13.4 0 0.6
v -0.5 0 0.6
vn -12.9 0 0
vn 0 0 -1.1
vn 0 0 1.1
vn 12.9 0 0
vt 0.5 -0.6
vt 13.4 -0.6
vt 13.4 0.5
vt 0.6 -0.1
vt 0.6 0
vt 13.4 -0.1
vt 13.4 0
vt -13.4 -0.1
vt -13.4 0
vt -0.6 0
vt -0.6 -0.1
vt 0.5 0.6
vt 13.4 -0.5
vt 13.4 0.6

usemtl _defaultMat (Instance) (Instance)
usemap _defaultMat (Instance) (Instance)
f 10/18/1 4/4/1 9/17/1
f 4/4/1 10/18/1 11/19/1
f 10/20/7 12/6/7 11/5/7
f 12/6/7 10/20/7 13/21/7
f 12/23/8 4/9/8 11/22/8
f 4/9/8 12/23/8 5/10/8
f 14/6/9 10/24/9 9/5/9
f 10/24/9 14/6/9 13/25/9
f 14/26/10 4/9/10 5/10/10
f 4/9/10 14/26/10 9/27/10
f 12/29/6 14/28/6 5/15/6
f 14/28/6 12/29/6 13/30/6
g block_default_3

v -5.9 -0.1 5.4
v -5.9 -0.1 4.3
v -13.4 -0.1 5.4
v -13.4 -0.1 4.3
v -13.4 0 4.3
v -13.4 0 5.4
v -5.9 0 4.3
v -5.9 0 5.4
vn -7.5 0 0
vn 7.5 0 0
vt 5.9 -5.4
vt 5.9 -4.3
vt 13.4 -5.4
vt 13.4 -4.3
vt 4.3 -0.1
vt 4.3 0
vt 5.4 -0.1
vt 5.4 0
vt 5.9 -0.1
vt 5.9 0
vt -5.9 -0.1
vt -5.9 0
vt -4.3 0
vt -4.3 -0.1
vt -5.4 0
vt -5.4 -0.1
vt 5.9 4.3
vt 5.9 5.4
vt 13.4 4.3
vt 13.4 5.4

usemtl _defaultMat (Instance) (Instance)
usemap _defaultMat (Instance) (Instance)
f 17/33/1 16/32/1 15/31/1
f 16/32/1 17/33/1 18/34/1
f 17/37/11 19/36/11 18/35/11
f 19/36/11 17/37/11 20/38/11
f 19/23/8 16/39/8 18/22/8
f 16/39/8 19/23/8 21/40/8
f 22/42/9 17/24/9 15/41/9
f 17/24/9 22/42/9 20/25/9
f 22/45/12 16/44/12 21/43/12
f 16/44/12 22/45/12 15/46/12
f 19/49/6 22/48/6 21/47/6
f 22/48/6 19/49/6 20/50/6
g block_default_4

v -14.4 -0.1 5.4
v -14.4 -0.1 -0.5
v -14.4 0 -0.5
v -14.4 0 5.4
vn 0 0 -5.9
vn 0 0 5.9
vt 14.4 -5.4
vt 14.4 0.5
vt 14.4 -0.1
vt 14.4 0
vt -14.4 -0.1
vt -14.4 0
vt 14.4 -0.5
vt 14.4 5.4

usemtl _defaultMat (Instance) (Instance)
usemap _defaultMat (Instance) (Instance)
f 23/51/1 11/19/1 17/33/1
f 11/19/1 23/51/1 24/52/1
f 23/37/2 25/6/2 24/5/2
f 25/6/2 23/37/2 26/38/2
f 25/54/13 11/22/13 24/53/13
f 11/22/13 25/54/13 12/23/13
f 20/25/14 23/55/14 17/24/14
f 23/55/14 20/25/14 26/56/14
f 20/45/5 11/9/5 12/10/5
f 11/9/5 20/45/5 17/46/5
f 25/57/6 20/50/6 12/29/6
f 20/50/6 25/57/6 26/58/6
g block_default_5

v -14.4 -0.1 3
v -14.4 -0.1 1.9
v -19 -0.1 3
v -19 -0.1 1.9
v -19 0 1.9
v -19 0 3
v -14.4 0 1.9
v -14.4 0 3
vn -4.6 0 0
vn 4.6 0 0
vt 14.4 -3
vt 14.4 -1.9
vt 19 -3
vt 19 -1.9
vt 1.9 -0.1
vt 1.9 0
vt 19 -0.1
vt 14.4 -0.1
vt 19 0
vt 14.4 0
vt -14.4 -0.1
vt -19 -0.1
vt -14.4 0
vt -19 0
vt -1.9 0
vt -1.9 -0.1
vt 14.4 1.9
vt 14.4 3
vt 19 1.9
vt 19 3

usemtl _defaultMat (Instance) (Instance)
usemap _defaultMat (Instance) (Instance)
f 29/61/1 28/60/1 27/59/1
f 28/60/1 29/61/1 30/62/1
f 29/7/15 31/64/15 30/63/15
f 31/64/15 29/7/15 32/8/15
f 31/67/8 28/66/8 30/65/8
f 28/66/8 31/67/8 33/68/8
f 34/71/9 29/70/9 27/69/9
f 29/70/9 34/71/9 32/72/9
f 34/11/16 28/74/16 33/73/16
f 28/74/16 34/11/16 27/12/16
f 31/77/6 34/76/6 33/75/6
f 34/76/6 31/77/6 32/78/6
g block_default_7

v -3.4 -0.1 17.45
v -3.4 -0.1 3.05
v -4.4 -0.1 17.45
v -4.4 -0.1 3.05
v -4.4 0 3.05
v -4.4 0 17.45
v -3.4 0 3.05
v -3.4 0 17.45
vn 0 0 -14.4
vn 0 0 14.4
vt 3.4 -17.45
vt 3.4 -3.05
vt 4.4 -17.45
vt 4.4 -3.05
vt 3.05 -0.1
vt 3.05 0
vt 17.45 -0.1
vt 17.45 0
vt 4.4 -0.1
vt 3.4 -0.1
vt 4.4 0
vt 3.4 0
vt -3.4 -0.1
vt -4.4 -0.1
vt -3.4 0
vt -4.4 0
vt -3.05 0
vt -3.05 -0.1
vt -17.45 0
vt -17.45 -0.1
vt 3.4 3.05
vt 3.4 17.45
vt 4.4 3.05
vt 4.4 17.45

usemtl _defaultMat (Instance) (Instance)
usemap _defaultMat (Instance) (Instance)
f 37/81/1 36/80/1 35/79/1
f 36/80/1 37/81/1 38/82/1
f 37/85/2 39/84/2 38/83/2
f 39/84/2 37/85/2 40/86/2
f 39/89/17 36/88/17 38/87/17
f 36/88/17 39/89/17 41/90/17
f 42/93/18 37/92/18 35/91/18
f 37/92/18 42/93/18 40/94/18
f 42/97/5 36/96/5 41/95/5
f 36/96/5 42/97/5 35/98/5
f 39/101/6 42/100/6 41/99/6
f 42/100/6 39/101/6 40/102/6
g block_default_8

v -17.8 -0.1 17.5
v -17.8 -0.1 5.299999
v -21 -0.1 17.5
v -21 -0.1 5.299999
v -21 0 5.299999
v -21 0 17.5
v -17.8 0 5.299999
v -17.8 0 17.5
vn -3.2 0 0
vn 0 0 -12.2
vn 0 0 12.2
vn 3.2 0 0
vt 17.8 -17.5
vt 17.8 -5.299999
vt 21 -17.5
vt 21 -5.299999
vt 5.299999 -0.1
vt 5.299999 0
vt 17.5 -0.1
vt 17.5 0
vt 21 -0.1
vt 17.8 -0.1
vt 21 0
vt 17.8 0
vt -17.8 -0.1
vt -21 -0.1
vt -17.8 0
vt -21 0
vt -5.299999 0
vt -5.299999 -0.1
vt -17.5 0
vt -17.5 -0.1
vt 17.8 5.299999
vt 17.8 17.5
vt 21 5.299999
vt 21 17.5

usemtl _defaultMat (Instance) (Instance)
usemap _defaultMat (Instance) (Instance)
f 45/105/1 44/104/1 43/103/1
f 44/104/1 45/105/1 46/106/1
f 45/109/19 47/108/19 46/107/19
f 47/108/19 45/109/19 48/110/19
f 47/113/20 44/112/20 46/111/20
f 44/112/20 47/113/20 49/114/20
f 50/117/21 45/116/21 43/115/21
f 45/116/21 50/117/21 48/118/21
f 50/121/22 44/120/22 49/119/22
f 44/120/22 50/121/22 43/122/22
f 47/125/6 50/124/6 49/123/6
f 50/124/6 47/125/6 48/126/6
g block_default_10

v -3 -0.1 9.5
v -3 -0.1 8.5
v -3.4 -0.1 9.5
v -3.4 -0.1 8.5
v -3.4 0.9 8.5
v -3.4 0.9 9.5
v -3 0.9 8.5
v -3 0.9 9.5
vn 0 -1 0
vn -0.4 0 0
vn 0 0 -1
vn 0 0 1
vn 0.4 0 0
vn 0 1 0
vt 3 -9.5
vt 3 -8.5
vt 3.4 -9.5
vt 3.4 -8.5
vt 8.5 -0.1
vt 8.5 0.9
vt 9.5 -0.1
vt 9.5 0.9
vt 3.4 0.9
vt 3 0.9
vt -3 0.9
vt -3.4 0.9
vt -8.5 0.9
vt -8.5 -0.1
vt -9.5 0.9
vt -9.5 -0.1
vt 3 8.5
vt 3 9.5
vt 3.4 8.5
vt 3.4 9.5

usemtl _defaultMat (Instance) (Instance)
usemap _defaultMat (Instance) (Instance)
f 53/129/23 52/128/23 51/127/23
f 52/128/23 53/129/23 54/130/23
f 53/133/24 55/132/24 54/131/24
f 55/132/24 53/133/24 56/134/24
f 55/135/25 52/7/25 54/88/25
f 52/7/25 55/135/25 57/136/25
f 58/137/26 53/91/26 51/12/26
f 53/91/26 58/137/26 56/138/26
f 58/141/27 52/140/27 57/139/27
f 52/140/27 58/141/27 51/142/27
f 55/145/28 58/144/28 57/143/28
f 58/144/28 55/145/28 56/146/28
g block_default_11

v -6.9 -0.1 8.5
v -6.9 -0.1 7.5
v -7.3 -0.1 8.5
v -7.3 -0.1 7.5
v -7.3 0.9 7.5
v -7.3 0.9 8.5
v -6.9 0.9 7.5
v -6.9 0.9 8.5
vt 6.9 -8.5
vt 6.9 -7.5
vt 7.3 -8.5
vt 7.3 -7.5
vt 7.5 -0.1
vt 7.5 0.9
vt 7.3 -0.1
vt 6.9 -0.1
vt 7.3 0.9
vt 6.9 0.9
vt -6.9 -0.1
vt -7.3 -0.1
vt -6.9 0.9
vt -7.3 0.9
vt -7.5 0.9
vt -7.5 -0.1
vt 6.9 7.5
vt 6.9 8.5
vt 7.3 7.5
vt 7.3 8.5

usemtl _defaultMat (Instance) (Instance)
usemap _defaultMat (Instance) (Instance)
f 61/149/23 60/148/23 59/147/23
f 60/148/23 61/149/23 62/150/23
f 61/131/24 63/152/24 62/151/24
f 63/152/24 61/131/24 64/132/24
f 63/155/25 60/154/25 62/153/25
f 60/154/25 63/155/25 65/156/25
f 66/159/26 61/158/26 59/157/26
f 61/158/26 66/159/26 64/160/26
f 66/139/27 60/162/27 65/161/27
f 60/162/27 66/139/27 59/140/27
f 63/165/28 66/164/28 65/163/28
f 66/164/28 63/165/28 64/166/28
g block_default_12

v -2.9 -0.1 7.5
v -2.9 -0.1 6.5
v -3.3 -0.1 7.5
v -3.3 -0.1 6.5
v -3.3 0.9 6.5
v -3.3 0.9 7.5
v -2.9 0.9 6.5
v -2.9 0.9 7.5
vt 2.9 -7.5
vt 2.9 -6.5
vt 3.3 -7.5
vt 3.3 -6.5
vt 6.5 -0.1
vt 6.5 0.9
vt 3.3 -0.1
vt 2.9 -0.1
vt 3.3 0.9
vt 2.9 0.9
vt -2.9 -0.1
vt -3.3 -0.1
vt -2.9 0.9
vt -3.3 0.9
vt -6.5 0.9
vt -6.5 -0.1
vt 2.9 6.5
vt 2.9 7.5
vt 3.3 6.5
vt 3.3 7.5

usemtl _defaultMat (Instance) (Instance)
usemap _defaultMat (Instance) (Instance)
f 69/169/23 68/168/23 67/167/23
f 68/168/23 69/169/23 70/170/23
f 69/151/24 71/172/24 70/171/24
f 71/172/24 69/151/24 72/152/24
f 71/175/25 68/174/25 70/173/25
f 68/174/25 71/175/25 73/176/25
f 74/179/26 69/178/26 67/177/26
f 69/178/26 74/179/26 72/180/26
f 74/161/27 68/182/27 73/181/27
f 68/182/27 74/161/27 67/162/27
f 71/185/28 74/184/28 73/183/28
f 74/184/28 71/185/28 72/186/28
g block_default_13

v -6.9 -0.1 10.5
v -6.9 -0.1 9.5
v -7.3 -0.1 10.5
v -7.3 -0.1 9.5
v -7.3 1 9.5
v -7.3 1 10.5
v -6.9 1 9.5
v -6.9 1 10.5
vn 0 -1.1 0
vn 0 1.1 0
vt 6.9 -10.5
vt 6.9 -9.5
vt 7.3 -10.5
vt 7.3 -9.5
vt 9.5 1
vt 10.5 -0.1
vt 10.5 1
vt 7.3 1
vt 6.9 1
vt -6.9 1
vt -7.3 1
vt -9.5 1
vt -10.5 1
vt -10.5 -0.1
vt 6.9 9.5
vt 6.9 10.5
vt 7.3 9.5
vt 7.3 10.5

usemtl _defaultMat (Instance) (Instance)
usemap _defaultMat (Instance) (Instance)
f 77/189/29 76/188/29 75/187/29
f 76/188/29 77/189/29 78/190/29
f 77/192/24 79/191/24 78/133/24
f 79/191/24 77/192/24 80/193/24
f 79/194/25 76/154/25 78/153/25
f 76/154/25 79/194/25 81/195/25
f 82/196/26 77/158/26 75/157/26
f 77/158/26 82/196/26 80/197/26
f 82/199/27 76/142/27 81/198/27
f 76/142/27 82/199/27 75/200/27
f 79/203/30 82/202/30 81/201/30
f 82/202/30 79/203/30 80/204/30
g block_default_14

v -3 -0.1 11.5
v -3 -0.1 10.5
v -3.4 -0.1 11.5
v -3.4 -0.1 10.5
v -3.4 0.9 10.5
v -3.4 0.9 11.5
v -3 0.9 10.5
v -3 0.9 11.5
vt 3 -11.5
vt 3 -10.5
vt 3.4 -11.5
vt 3.4 -10.5
vt 10.5 0.9
vt 11.5 -0.1
vt 11.5 0.9
vt -10.5 0.9
vt -11.5 0.9
vt -11.5 -0.1
vt 3 10.5
vt 3 11.5
vt 3.4 10.5
vt 3.4 11.5

usemtl _defaultMat (Instance) (Instance)
usemap _defaultMat (Instance) (Instance)
f 85/207/23 84/206/23 83/205/23
f 84/206/23 85/207/23 86/208/23
f 85/210/24 87/209/24 86/192/24
f 87/209/24 85/210/24 88/211/24
f 87/135/25 84/7/25 86/88/25
f 84/7/25 87/135/25 89/136/25
f 90/137/26 85/91/26 83/12/26
f 85/91/26 90/137/26 88/138/26
f 90/213/27 84/200/27 89/212/27
f 84/200/27 90/213/27 83/214/27
f 87/217/28 90/216/28 89/215/28
f 90/216/28 87/217/28 88/218/28
g block_default_18

v -6.9 -0.1 12.5
v -6.9 -0.1 11.5
v -7.3 -0.1 12.5
v -7.3 -0.1 11.5
v -7.3 1 11.5
v -7.3 1 12.5
v -6.9 1 11.5
v -6.9 1 12.5
vt 6.9 -12.5
vt 6.9 -11.5
vt 7.3 -12.5
vt 7.3 -11.5
vt 11.5 1
vt 12.5 -0.1
vt 12.5 1
vt -11.5 1
vt -12.5 1
vt -12.5 -0.1
vt 6.9 11.5
vt 6.9 12.5
vt 7.3 11.5
vt 7.3 12.5

usemtl _defaultMat (Instance) (Instance)
usemap _defaultMat (Instance) (Instance)
f 93/221/29 92/220/29 91/219/29
f 92/220/29 93/221/29 94/222/29
f 93/224/24 95/223/24 94/210/24
f 95/223/24 93/224/24 96/225/24
f 95/194/25 92/154/25 94/153/25
f 92/154/25 95/194/25 97/195/25
f 98/196/26 93/158/26 91/157/26
f 93/158/26 98/196/26 96/197/26
f 98/227/27 92/214/27 97/226/27
f 92/214/27 98/227/27 91/228/27
f 95/231/30 98/230/30 97/229/30
f 98/230/30 95/231/30 96/232/30
g block_default_19

v -6.8 -0.1 9.5
v -6.8 -0.1 8.5
v -8.599999 -0.1 9.5
v -8.599999 -0.1 8.5
v -8.599999 0 8.5
v -8.599999 0 9.5
v -6.8 0 8.5
v -6.8 0 9.5
vn -1.8 0 0
vn 1.8 0 0
vt 6.8 -9.5
vt 6.8 -8.5
vt 8.599999 -9.5
vt 8.599999 -8.5
vt 8.5 0
vt 9.5 0
vt 8.599999 -0.1
vt 6.8 -0.1
vt 8.599999 0
vt 6.8 0
vt -6.8 -0.1
vt -8.599999 -0.1
vt -6.8 0
vt -8.599999 0
vt -8.5 0
vt -9.5 0
vt 6.8 8.5
vt 6.8 9.5
vt 8.599999 8.5
vt 8.599999 9.5

usemtl _defaultMat (Instance) (Instance)
usemap _defaultMat (Instance) (Instance)
f 101/235/1 100/234/1 99/233/1
f 100/234/1 101/235/1 102/236/1
f 101/133/31 103/237/31 102/131/31
f 103/237/31 101/133/31 104/238/31
f 103/241/25 100/240/25 102/239/25
f 100/240/25 103/241/25 105/242/25
f 106/245/26 101/244/26 99/243/26
f 101/244/26 106/245/26 104/246/26
f 106/248/32 100/140/32 105/247/32
f 100/140/32 106/248/32 99/142/32
f 103/251/6 106/250/6 105/249/6
f 106/250/6 103/251/6 104/252/6
g block_default_23

v -1.5 -0.1 10.5
v -1.5 -0.1 9.5
v -3.4 0 9.5
v -3.4 0 10.5
v -1.5 0 9.5
v -1.5 0 10.5
vn -1.9 0 0
vn 1.9 0 0
vt 1.5 -10.5
vt 1.5 -9.5
vt 10.5 0
vt 1.5 -0.1
vt 1.5 0
vt -1.5 -0.1
vt -1.5 0
vt -10.5 0
vt 1.5 9.5
vt 1.5 10.5

usemtl _defaultMat (Instance) (Instance)
usemap _defaultMat (Instance) (Instance)
f 86/208/1 108/254/1 107/253/1
f 108/254/1 86/208/1 53/129/1
f 86/192/33 109/238/33 53/133/33
f 109/238/33 86/192/33 110/255/33
f 109/90/25 108/256/25 53/88/25
f 108/256/25 109/90/25 111/257/25
f 112/259/26 86/91/26 107/258/26
f 86/91/26 112/259/26 110/93/26
f 112/260/34 108/142/34 111/248/34
f 108/142/34 112/260/34 107/200/34
f 109/146/6 112/262/6 111/261/6
f 112/262/6 109/146/6 110/217/6
g block_default_25

v -3 -0.1 13.5
v -3 -0.1 12.5
v -3.4 -0.1 13.5
v -3.4 -0.1 12.5
v -3.4 1 12.5
v -3.4 1 13.5
v -3 1 12.5
v -3 1 13.5
vt 3 -13.5
vt 3 -12.5
vt 3.4 -13.5
vt 3.4 -12.5
vt 13.5 -0.1
vt 13.5 1
vt 3.4 1
vt 3 1
vt -3 1
vt -3.4 1
vt -13.5 1
vt -13.5 -0.1
vt 3 12.5
vt 3 13.5
vt 3.4 12.5
vt 3.4 13.5

usemtl _defaultMat (Instance) (Instance)
usemap _defaultMat (Instance) (Instance)
f 115/265/29 114/264/29 113/263/29
f 114/264/29 115/265/29 116/266/29
f 115/267/24 117/225/24 116/224/24
f 117/225/24 115/267/24 118/268/24
f 117/269/25 114/7/25 116/88/25
f 114/7/25 117/269/25 119/270/25
f 120/271/26 115/91/26 113/12/26
f 115/91/26 120/271/26 118/272/26
f 120/273/27 114/228/27 119/227/27
f 114/228/27 120/273/27 113/274/27
f 117/277/30 120/276/30 119/275/30
f 120/276/30 117/277/30 118/278/30
g block_default_26

v -5.899999 -0.1 15.55
v -5.899999 -0.1 14.45
v -17.8 -0.1 15.55
v -17.8 -0.1 14.45
v -17.8 0 14.45
v -17.8 0 15.55
v -5.899999 0 14.45
v -5.899999 0 15.55
vn -11.9 0 0
vn 11.9 0 0
vt 5.899999 -15.55
vt 5.899999 -14.45
vt 17.8 -15.55
vt 17.8 -14.45
vt 14.45 -0.1
vt 14.45 0
vt 15.55 -0.1
vt 15.55 0
vt 5.899999 -0.1
vt 5.899999 0
vt -5.899999 -0.1
vt -5.899999 0
vt -14.45 0
vt -14.45 -0.1
vt -15.55 0
vt -15.55 -0.1
vt 5.899999 14.45
vt 5.899999 15.55
vt 17.8 14.45
vt 17.8 15.55

usemtl _defaultMat (Instance) (Instance)
usemap _defaultMat (Instance) (Instance)
f 123/281/1 122/280/1 121/279/1
f 122/280/1 123/281/1 124/282/1
f 123/285/35 125/284/35 124/283/35
f 125/284/35 123/285/35 126/286/35
f 125/114/8 122/287/8 124/112/8
f 122/287/8 125/114/8 127/288/8
f 128/290/9 123/115/9 121/289/9
f 123/115/9 128/290/9 126/117/9
f 128/293/36 122/292/36 127/291/36
f 122/292/36 128/293/36 121/294/36
f 125/297/6 128/296/6 127/295/6
f 128/296/6 125/297/6 126/298/6
g block_default_27

v -4.4 -0.1 17.45
v -4.4 -0.1 16.35
v -17.9 -0.1 17.45
v -17.9 -0.1 16.35
v -17.9 0 16.35
v -17.9 0 17.45
v -4.4 0 16.35
v -4.4 0 17.45
vn -13.5 0 0
vn 13.5 0 0
vt 4.4 -17.45
vt 4.4 -16.35
vt 17.9 -17.45
vt 17.9 -16.35
vt 16.35 -0.1
vt 16.35 0
vt 17.45 -0.1
vt 17.45 0
vt 17.9 -0.1
vt 4.4 -0.1
vt 17.9 0
vt 4.4 0
vt -4.4 -0.1
vt -17.9 -0.1
vt -4.4 0
vt -17.9 0
vt -16.35 0
vt -16.35 -0.1
vt -17.45 0
vt -17.45 -0.1
vt 4.4 16.35
vt 4.4 17.45
vt 17.9 16.35
vt 17.9 17.45

usemtl _defaultMat (Instance) (Instance)
usemap _defaultMat (Instance) (Instance)
f 131/301/1 130/300/1 129/299/1
f 130/300/1 131/301/1 132/302/1
f 131/305/37 133/304/37 132/303/37
f 133/304/37 131/305/37 134/306/37
f 133/309/8 130/308/8 132/307/8
f 130/308/8 133/309/8 135/310/8
f 136/313/9 131/312/9 129/311/9
f 131/312/9 136/313/9 134/314/9
f 136/317/38 130/316/38 135/315/38
f 130/316/38 136/317/38 129/318/38
f 133/321/6 136/320/6 135/319/6
f 136/320/6 133/321/6 134/322/6
g block_default_28

v -10.5 -0.1 13.5
v -10.5 -0.1 6.5
v -11.5 -0.1 13.5
v -11.5 -0.1 6.5
v -11.5 0 6.5
v -11.5 0 13.5
v -10.5 0 6.5
v -10.5 0 13.5
vn 0 0 -7
vn 0 0 7
vt 10.5 -13.5
vt 10.5 -6.5
vt 11.5 -13.5
vt 11.5 -6.5
vt 6.5 0
vt 13.5 0
vt 11.5 0
vt -11.5 0
vt -6.5 0
vt -13.5 0
vt 10.5 6.5
vt 10.5 13.5
vt 11.5 6.5
vt 11.5 13.5

usemtl _defaultMat (Instance) (Instance)
usemap _defaultMat (Instance) (Instance)
f 139/325/1 138/324/1 137/323/1
f 138/324/1 139/325/1 140/326/1
f 139/267/2 141/327/2 140/171/2
f 141/327/2 139/267/2 142/328/2
f 141/329/39 138/192/39 140/210/39
f 138/192/39 141/329/39 143/255/39
f 144/260/40 139/214/40 137/200/40
f 139/214/40 144/260/40 142/330/40
f 144/332/5 138/182/5 143/331/5
f 138/182/5 144/332/5 137/274/5
f 141/335/6 144/334/6 143/333/6
f 144/334/6 141/335/6 142/336/6
g block_default_29

v 1.1 -0.1 13.5
v 1.1 -0.1 6.499999
v 0.09999996 -0.1 13.5
v 0.09999996 -0.1 6.499999
v 0.09999996 0 6.499999
v 0.09999996 0 13.5
v 1.1 0 6.499999
v 1.1 0 13.5
vt -1.1 -13.5
vt -1.1 -6.499999
vt -0.09999996 -13.5
vt -0.09999996 -6.499999
vt 6.499999 -0.1
vt 6.499999 0
vt 13.5 -0.1
vt 13.5 0
vt -0.09999996 -0.1
vt -1.1 -0.1
vt -0.09999996 0
vt -1.1 0
vt 1.1 -0.1
vt 0.09999996 -0.1
vt 1.1 0
vt 0.09999996 0
vt -6.499999 0
vt -6.499999 -0.1
vt -13.5 0
vt -13.5 -0.1
vt -1.1 6.499999
vt -1.1 13.5
vt -0.09999996 6.499999
vt -0.09999996 13.5

usemtl _defaultMat (Instance) (Instance)
usemap _defaultMat (Instance) (Instance)
f 147/339/1 146/338/1 145/337/1
f 146/338/1 147/339/1 148/340/1
f 147/343/2 149/342/2 148/341/2
f 149/342/2 147/343/2 150/344/2
f 149/347/39 146/346/39 148/345/39
f 146/346/39 149/347/39 151/348/39
f 152/351/40 147/350/40 145/349/40
f 147/350/40 152/351/40 150/352/40
f 152/355/5 146/354/5 151/353/5
f 146/354/5 152/355/5 145/356/5
f 149/359/6 152/358/6 151/357/6
f 152/358/6 149/359/6 150/360/6
g block_default_30

v -6.8 -0.1 7.5
v -6.8 -0.1 6.5
v -8.599999 -0.1 7.5
v -8.599999 -0.1 6.5
v -8.599999 0 6.5
v -8.599999 0 7.5
v -6.8 0 6.5
v -6.8 0 7.5
vt 6.8 -7.5
vt 6.8 -6.5
vt 8.599999 -7.5
vt 8.599999 -6.5
vt 7.5 0
vt -7.5 0
vt 6.8 6.5
vt 6.8 7.5
vt 8.599999 6.5
vt 8.599999 7.5

usemtl _defaultMat (Instance) (Instance)
usemap _defaultMat (Instance) (Instance)
f 155/363/1 154/362/1 153/361/1
f 154/362/1 155/363/1 156/364/1
f 155/151/31 157/327/31 156/171/31
f 157/327/31 155/151/31 158/365/31
f 157/241/25 154/240/25 156/239/25
f 154/240/25 157/241/25 159/242/25
f 160/245/26 155/244/26 153/243/26
f 155/244/26 160/245/26 158/246/26
f 160/366/32 154/182/32 159/331/32
f 154/182/32 160/366/32 153/162/32
f 157/369/6 160/368/6 159/367/6
f 160/368/6 157/369/6 158/370/6
g block_default_31

v -6.8 -0.1 11.5
v -6.8 -0.1 10.5
v -8.599999 -0.1 11.5
v -8.599999 -0.1 10.5
v -8.599999 0 10.5
v -8.599999 0 11.5
v -6.8 0 10.5
v -6.8 0 11.5
vt 6.8 -11.5
vt 6.8 -10.5
vt 8.599999 -11.5
vt 8.599999 -10.5
vt 6.8 10.5
vt 6.8 11.5
vt 8.599999 10.5
vt 8.599999 11.5

usemtl _defaultMat (Instance) (Instance)
usemap _defaultMat (Instance) (Instance)
f 163/373/1 162/372/1 161/371/1
f 162/372/1 163/373/1 164/374/1
f 163/210/31 165/255/31 164/192/31
f 165/255/31 163/210/31 166/329/31
f 165/241/25 162/240/25 164/239/25
f 162/240/25 165/241/25 167/242/25
f 168/245/26 163/244/26 161/243/26
f 163/244/26 168/245/26 166/246/26
f 168/330/32 162/200/32 167/260/32
f 162/200/32 168/330/32 161/214/32
f 165/377/6 168/376/6 167/375/6
f 168/376/6 165/377/6 166/378/6
g block_default_32

v -6.8 -0.1 13.5
v -6.8 -0.1 12.5
v -8.599999 -0.1 13.5
v -8.599999 -0.1 12.5
v -8.599999 0 12.5
v -8.599999 0 13.5
v -6.8 0 12.5
v -6.8 0 13.5
vt 6.8 -13.5
vt 6.8 -12.5
vt 8.599999 -13.5
vt 8.599999 -12.5
vt 12.5 0
vt -12.5 0
vt 6.8 12.5
vt 6.8 13.5
vt 8.599999 12.5
vt 8.599999 13.5

usemtl _defaultMat (Instance) (Instance)
usemap _defaultMat (Instance) (Instance)
f 171/381/1 170/380/1 169/379/1
f 170/380/1 171/381/1 172/382/1
f 171/267/31 173/383/31 172/224/31
f 173/383/31 171/267/31 174/328/31
f 173/241/25 170/240/25 172/239/25
f 170/240/25 173/241/25 175/242/25
f 176/245/26 171/244/26 169/243/26
f 171/244/26 176/245/26 174/246/26
f 176/332/32 170/228/32 175/384/32
f 170/228/32 176/332/32 169/274/32
f 173/387/6 176/386/6 175/385/6
f 176/386/6 173/387/6 174/388/6
g block_default_33

v -1.5 -0.1 12.5
v -1.5 -0.1 11.5
v -3.4 0 11.5
v -3.4 0 12.5
v -1.5 0 11.5
v -1.5 0 12.5
vt 1.5 -12.5
vt 1.5 -11.5
vt 1.5 11.5
vt 1.5 12.5

usemtl _defaultMat (Instance) (Instance)
usemap _defaultMat (Instance) (Instance)
f 116/266/1 178/390/1 177/389/1
f 178/390/1 116/266/1 85/207/1
f 116/224/33 179/329/33 85/210/33
f 179/329/33 116/224/33 180/383/33
f 179/90/25 178/256/25 85/88/25
f 178/256/25 179/90/25 181/257/25
f 182/259/26 116/91/26 177/258/26
f 116/91/26 182/259/26 180/93/26
f 182/384/34 178/214/34 181/330/34
f 178/214/34 182/384/34 177/228/34
f 179/218/6 182/392/6 181/391/6
f 182/392/6 179/218/6 180/277/6
g block_default_34

v -1.5 -0.1 8.5
v -1.5 -0.1 7.5
v -3.4 -0.1 7.5
v -3.4 0 7.5
v -3.4 0 8.5
v -1.5 0 7.5
v -1.5 0 8.5
vt 1.5 -8.5
vt 1.5 -7.5
vt 3.4 -7.5
vt 1.5 7.5
vt 1.5 8.5
vt 3.4 7.5

usemtl _defaultMat (Instance) (Instance)
usemap _defaultMat (Instance) (Instance)
f 54/130/1 184/394/1 183/393/1
f 184/394/1 54/130/1 185/395/1
f 54/131/33 186/365/33 185/151/33
f 186/365/33 54/131/33 187/237/33
f 186/90/25 184/256/25 185/88/25
f 184/256/25 186/90/25 188/257/25
f 189/259/26 54/91/26 183/258/26
f 54/91/26 189/259/26 187/93/26
f 189/247/34 184/162/34 188/366/34
f 184/162/34 189/247/34 183/140/34
f 186/398/6 189/397/6 188/396/6
f 189/397/6 186/398/6 187/145/6
g block_default_35

v -0.5 -0.1 1.9
v -11.7 -0.1 3
v -11.7 -0.1 1.9
v -11.7 0 1.9
v -11.7 0 3
v -0.5 0 1.9
vn -11.2 0 0
vn 11.2 0 0
vt 0.5 -1.9
vt 11.7 -3
vt 11.7 -1.9
vt 11.7 -0.1
vt 11.7 0
vt -11.7 -0.1
vt -11.7 0
vt 0.5 1.9
vt 11.7 1.9
vt 11.7 3

usemtl _defaultMat (Instance) (Instance)
usemap _defaultMat (Instance) (Instance)
f 191/400/1 190/399/1 3/3/1
f 190/399/1 191/400/1 192/401/1
f 191/7/41 193/64/41 192/63/41
f 193/64/41 191/7/41 194/8/41
f 193/403/8 190/9/8 192/402/8
f 190/9/8 193/403/8 195/10/8
f 6/6/9 191/404/9 3/5/9
f 191/404/9 6/6/9 194/405/9
f 6/11/42 190/74/42 195/73/42
f 190/74/42 6/11/42 3/12/42
f 193/407/6 6/16/6 195/406/6
f 6/16/6 193/407/6 194/408/6
g block_default_36

v -5.9 -0.1 14.5
v -5.9 -0.1 5.4
v -6.9 -0.1 14.5
v -6.9 -0.1 5.4
v -6.9 0 5.4
v -6.9 0 14.5
v -5.9 0 5.4
v -5.9 0 14.5
vn 0 0 -9.1
vn 0 0 9.1
vt 5.9 -14.5
vt 5.9 -5.4
vt 6.9 -14.5
vt 6.9 -5.4
vt 5.4 -0.1
vt 5.4 0
vt 14.5 -0.1
vt 14.5 0
vt 5.9 -0.1
vt 6.9 0
vt 5.9 0
vt -5.9 -0.1
vt -5.9 0
vt -6.9 0
vt -5.4 0
vt -5.4 -0.1
vt -14.5 0
vt -14.5 -0.1
vt 5.9 5.4
vt 5.9 14.5
vt 6.9 5.4
vt 6.9 14.5

usemtl _defaultMat (Instance) (Instance)
usemap _defaultMat (Instance) (Instance)
f 198/411/1 197/410/1 196/409/1
f 197/410/1 198/411/1 199/412/1
f 198/415/2 200/414/2 199/413/2
f 200/414/2 198/415/2 201/416/2
f 200/418/43 197/417/43 199/154/43
f 197/417/43 200/418/43 202/419/43
f 203/421/44 198/157/44 196/420/44
f 198/157/44 203/421/44 201/422/44
f 203/425/5 197/424/5 202/423/5
f 197/424/5 203/425/5 196/426/5
f 200/429/6 203/428/6 202/427/6
f 203/428/6 200/429/6 201/430/6
