# Made using Asset Forge (www.assetforge.io) version 1.3 

mtllib Fast.mtl 

g block_default_6

v 7.95 -0.2 3.7
v 7.95 -0.2 2.6
v -7.95 -0.2 3.7
v -7.95 -0.2 2.6
v -7.95 -0.1 2.6
v -7.95 -0.1 3.7
v 7.95 -0.1 2.6
v 7.95 -0.1 3.7
vn 0 -0.1 0
vn -15.9 0 0
vn 0 0 -1.1
vn 0 0 1.1
vn 15.9 0 0
vn 0 0.1 0
vt -7.95 -3.7
vt -7.95 -2.6
vt 7.95 -3.7
vt 7.95 -2.6
vt 2.6 -0.2
vt 2.6 -0.1
vt 3.7 -0.2
vt 3.7 -0.1
vt 7.95 -0.2
vt -7.95 -0.2
vt 7.95 -0.1
vt -7.95 -0.1
vt -2.6 -0.1
vt -2.6 -0.2
vt -3.7 -0.1
vt -3.7 -0.2
vt -7.95 2.6
vt -7.95 3.7
vt 7.95 2.6
vt 7.95 3.7

usemtl _defaultMat (Instance)
usemap _defaultMat (Instance)
f 3/3/1 2/2/1 1/1/1
f 2/2/1 3/3/1 4/4/1
f 3/7/2 5/6/2 4/5/2
f 5/6/2 3/7/2 6/8/2
f 5/11/3 2/10/3 4/9/3
f 2/10/3 5/11/3 7/12/3
f 8/11/4 3/10/4 1/9/4
f 3/10/4 8/11/4 6/12/4
f 8/15/5 2/14/5 7/13/5
f 2/14/5 8/15/5 1/16/5
f 5/19/6 8/18/6 7/17/6
f 8/18/6 5/19/6 6/20/6
g block_default_9

v -7.850001 -0.2 2.7
v -6.75 -0.2 2.7
v -7.85 -0.2 -6
v -6.75 -0.2 -6
v -6.75 -0.1 -6
v -7.85 -0.1 -6
v -6.75 -0.1 2.7
v -7.850001 -0.1 2.7
vn 9.536743E-07 0 -8.700001
vn 1.1 0 1.192093E-07
vn -1.1 0 -1.192093E-07
vn -9.536743E-07 0 8.700001
vt 7.850001 -2.7
vt 6.75 -2.700001
vt 7.85 6
vt 6.75 6
vt 6.75 -0.2
vt 6.75 -0.1
vt 7.85 -0.2
vt 7.85 -0.1
vt 6 -0.2
vt -2.700001 -0.2
vt 6 -0.1
vt -2.700001 -0.1
vt 2.7 -0.2
vt -6 -0.2
vt 2.7 -0.1
vt -6 -0.1
vt -6.75 -0.1
vt -6.75 -0.2
vt -7.850001 -0.1
vt -7.850001 -0.2
vt 6.75 2.700001
vt 7.850001 2.7
vt 6.75 -6
vt 7.85 -6

usemtl _defaultMat (Instance) (Instance)
usemap _defaultMat (Instance) (Instance)
f 11/23/1 10/22/1 9/21/1
f 10/22/1 11/23/1 12/24/1
f 11/27/7 13/26/7 12/25/7
f 13/26/7 11/27/7 14/28/7
f 13/31/8 10/30/8 12/29/8
f 10/30/8 13/31/8 15/32/8
f 16/35/9 11/34/9 9/33/9
f 11/34/9 16/35/9 14/36/9
f 16/39/10 10/38/10 15/37/10
f 10/38/10 16/39/10 9/40/10
f 13/43/6 16/42/6 15/41/6
f 16/42/6 13/43/6 14/44/6
g block_default_10

v -3.050002 -0.2 2.700001
v -1.95 -0.2 2.700001
v -3.05 -0.2 -17.2
v -1.949998 -0.2 -17.2
v -1.949998 -0.1 -17.2
v -3.05 -0.1 -17.2
v -1.95 -0.1 2.700001
v -3.050002 -0.1 2.700001
vn 1.907349E-06 0 -19.9
vn 1.100001 0 1.192093E-07
vn -1.100001 0 -1.192093E-07
vn -1.907349E-06 0 19.9
vt 3.050002 -2.700001
vt 1.95 -2.700001
vt 3.049999 17.2
vt 1.949998 17.2
vt 1.949998 -0.2
vt 1.949998 -0.1
vt 3.049999 -0.2
vt 3.049999 -0.1
vt 17.2 -0.2
vt -2.700001 -0.2
vt 17.2 -0.1
vt -2.700001 -0.1
vt 2.700001 -0.2
vt -17.2 -0.2
vt 2.700001 -0.1
vt -17.2 -0.1
vt -1.95 -0.1
vt -1.95 -0.2
vt -3.050002 -0.1
vt -3.050002 -0.2
vt 1.95 2.700001
vt 3.050002 2.700001
vt 1.949998 -17.2
vt 3.049999 -17.2

usemtl _defaultMat (Instance) (Instance)
usemap _defaultMat (Instance) (Instance)
f 19/47/1 18/46/1 17/45/1
f 18/46/1 19/47/1 20/48/1
f 19/51/11 21/50/11 20/49/11
f 21/50/11 19/51/11 22/52/11
f 21/55/12 18/54/12 20/53/12
f 18/54/12 21/55/12 23/56/12
f 24/59/13 19/58/13 17/57/13
f 19/58/13 24/59/13 22/60/13
f 24/63/14 18/62/14 23/61/14
f 18/62/14 24/63/14 17/64/14
f 21/67/6 24/66/6 23/65/6
f 24/66/6 21/67/6 22/68/6
g block_default_11

v -5.187005 -0.2 -6.914824
v -5.964823 -0.2 -6.137006
v 0.9648228 -0.2 -0.7629941
v 0.187005 -0.2 0.01482368
v 0.187005 -0.1 0.01482368
v 0.9648228 -0.1 -0.7629941
v -5.964823 -0.1 -6.137006
v -5.187005 -0.1 -6.914824
vn 6.151828 0 6.15183
vn -0.7778176 0 0.7778174
vn 0.7778176 0 -0.7778174
vn -6.151828 0 -6.15183
vt 5.187006 6.914824
vt 5.964823 6.137006
vt -0.9648229 0.7629939
vt -0.1870053 -0.0148235
vt 0.1870053 -0.2
vt 0.1870053 -0.1
vt 0.9648229 -0.2
vt 0.9648229 -0.1
vt 0.0148235 -0.2
vt -6.137006 -0.2
vt 0.0148235 -0.1
vt -6.137006 -0.1
vt 6.914824 -0.2
vt 0.7629939 -0.2
vt 6.914824 -0.1
vt 0.7629939 -0.1
vt 5.964823 -0.1
vt 5.964823 -0.2
vt 5.187006 -0.1
vt 5.187006 -0.2
vt 5.964823 -6.137006
vt 5.187006 -6.914824
vt -0.1870053 0.0148235
vt -0.9648229 -0.7629939

usemtl _defaultMat (Instance) (Instance)
usemap _defaultMat (Instance) (Instance)
f 27/71/1 26/70/1 25/69/1
f 26/70/1 27/71/1 28/72/1
f 27/75/15 29/74/15 28/73/15
f 29/74/15 27/75/15 30/76/15
f 29/79/16 26/78/16 28/77/16
f 26/78/16 29/79/16 31/80/16
f 32/83/17 27/82/17 25/81/17
f 27/82/17 32/83/17 30/84/17
f 32/87/18 26/86/18 31/85/18
f 26/86/18 32/87/18 25/88/18
f 29/91/6 32/90/6 31/89/6
f 32/90/6 29/91/6 30/92/6
g block_default_12

v 0.9648235 -0.2 -11.53701
v 0.1870062 -0.2 -12.31482
v -5.187006 -0.2 -5.385178
v -5.964824 -0.2 -6.162995
v -5.964824 -0.1 -6.162995
v -5.187006 -0.1 -5.385178
v 0.1870062 -0.1 -12.31482
v 0.9648235 -0.1 -11.53701
vn -6.15183 0 6.151828
vn -0.7778173 0 -0.7778176
vn 0.7778173 0 0.7778176
vn 6.15183 0 -6.151828
vt -0.9648237 11.53701
vt -0.1870064 12.31482
vt 5.187006 5.385178
vt 5.964824 6.162995
vt -6.162995 -0.2
vt -6.162995 -0.1
vt -5.385178 -0.2
vt -5.385178 -0.1
vt 5.964824 -0.2
vt -0.1870064 -0.2
vt 5.964824 -0.1
vt -0.1870064 -0.1
vt 0.9648237 -0.2
vt -5.187006 -0.2
vt 0.9648237 -0.1
vt -5.187006 -0.1
vt 12.31482 -0.1
vt 12.31482 -0.2
vt 11.53701 -0.1
vt 11.53701 -0.2
vt -0.1870064 -12.31482
vt -0.9648237 -11.53701
vt 5.964824 -6.162995
vt 5.187006 -5.385178

usemtl _defaultMat (Instance) (Instance) (Instance)
usemap _defaultMat (Instance) (Instance) (Instance)
f 35/95/1 34/94/1 33/93/1
f 34/94/1 35/95/1 36/96/1
f 35/99/19 37/98/19 36/97/19
f 37/98/19 35/99/19 38/100/19
f 37/103/20 34/102/20 36/101/20
f 34/102/20 37/103/20 39/104/20
f 40/107/21 35/106/21 33/105/21
f 35/106/21 40/107/21 38/108/21
f 40/111/22 34/110/22 39/109/22
f 34/110/22 40/111/22 33/112/22
f 37/115/6 40/114/6 39/113/6
f 40/114/6 37/115/6 38/116/6
g block_default_13

v -0.2500005 -0.1999995 1.399999
v 0.8499973 -0.2000002 1.399999
v -0.2499972 -0.1999998 -5.900001
v 0.8500007 -0.2000005 -5.900001
v 0.8500007 -0.09999958 -5.900001
v -0.2499971 -0.09999893 -5.900001
v 0.8499974 -0.0999993 1.399999
v -0.2500005 -0.09999865 1.399999
vn -5.900486E-08 -0.1000009 3.840952E-09
vn 3.33786E-06 -2.803889E-07 -7.3
vn 1.099998 -6.490464E-07 4.768372E-07
vn -1.099998 6.490464E-07 -4.768372E-07
vn -3.33786E-06 2.803889E-07 7.3
vn 5.900486E-08 0.1000009 -3.840952E-09
vt 0.2500006 -1.399999
vt -0.8499973 -1.399999
vt 0.2499971 5.900001
vt -0.8500007 5.9
vt -0.8500007 -0.2000005
vt -0.8500008 -0.09999958
vt 0.2499971 -0.1999998
vt 0.2499971 -0.09999893
vt 5.9 -0.2000005
vt -1.399999 -0.2000002
vt 5.9 -0.09999958
vt -1.399999 -0.0999993
vt 1.399999 -0.1999995
vt -5.900001 -0.1999998
vt 1.399999 -0.09999865
vt -5.900001 -0.09999893
vt 0.8499973 -0.0999993
vt 0.8499973 -0.2000002
vt -0.2500005 -0.09999865
vt -0.2500006 -0.1999995
vt -0.8499973 1.399999
vt 0.2500005 1.399999
vt -0.8500008 -5.9
vt 0.2499971 -5.900001

usemtl _defaultMat (Instance) (Instance) (Instance) (Instance)
usemap _defaultMat (Instance) (Instance) (Instance) (Instance)
f 43/119/23 42/118/23 41/117/23
f 42/118/23 43/119/23 44/120/23
f 43/123/24 45/122/24 44/121/24
f 45/122/24 43/123/24 46/124/24
f 45/127/25 42/126/25 44/125/25
f 42/126/25 45/127/25 47/128/25
f 48/131/26 43/130/26 41/129/26
f 43/130/26 48/131/26 46/132/26
f 48/135/27 42/134/27 47/133/27
f 42/134/27 48/135/27 41/136/27
f 45/139/28 48/138/28 47/137/28
f 48/138/28 45/139/28 46/140/28
g block_default_14

v 2.849999 -0.1999995 1.499999
v 3.949997 -0.2000002 1.499999
v 2.850003 -0.1999998 -5.900001
v 3.950001 -0.2000005 -5.9
v 3.950001 -0.09999952 -5.9
v 2.850003 -0.09999887 -5.900001
v 3.949997 -0.09999924 1.499999
v 2.849999 -0.09999859 1.499999
vn -5.900489E-08 -0.1000009 3.840955E-09
vn 3.33786E-06 -2.842298E-07 -7.4
vn -3.33786E-06 2.842298E-07 7.4
vn 5.900489E-08 0.1000009 -3.840955E-09
vt -2.849999 -1.499999
vt -3.949997 -1.499999
vt -2.850003 5.900001
vt -3.950001 5.9
vt -3.950001 -0.2000005
vt -3.950001 -0.09999952
vt -2.850003 -0.1999998
vt -2.850003 -0.09999888
vt -1.499999 -0.2000002
vt 5.9 -0.09999952
vt -1.499999 -0.09999923
vt 1.499999 -0.1999995
vt 1.499999 -0.09999859
vt -5.900001 -0.09999888
vt 3.949997 -0.09999923
vt 3.949997 -0.2000002
vt 2.849999 -0.09999859
vt 2.849999 -0.1999995
vt -3.949997 1.499999
vt -2.849999 1.499999
vt -3.950001 -5.9
vt -2.850003 -5.900001

usemtl _defaultMat (Instance) (Instance) (Instance) (Instance) (Instance)
usemap _defaultMat (Instance) (Instance) (Instance) (Instance) (Instance)
f 51/143/29 50/142/29 49/141/29
f 50/142/29 51/143/29 52/144/29
f 51/147/30 53/146/30 52/145/30
f 53/146/30 51/147/30 54/148/30
f 53/150/25 50/149/25 52/125/25
f 50/149/25 53/150/25 55/151/25
f 56/153/26 51/130/26 49/152/26
f 51/130/26 56/153/26 54/154/26
f 56/157/31 50/156/31 55/155/31
f 50/156/31 56/157/31 49/158/31
f 53/161/32 56/160/32 55/159/32
f 56/160/32 53/161/32 54/162/32
g block_default_15

v 7.049999 -0.1999995 1.499999
v 8.149997 -0.2000002 1.499999
v 7.050003 -0.1999998 -5.900001
v 8.150001 -0.2000005 -5.9
v 8.150001 -0.09999952 -5.9
v 7.050003 -0.09999887 -5.900001
v 8.149998 -0.09999924 1.499999
v 7.049999 -0.09999859 1.499999
vt -7.049999 -1.499999
vt -8.149997 -1.499999
vt -7.050003 5.900001
vt -8.150001 5.9
vt -8.150001 -0.2000005
vt -8.150001 -0.09999952
vt -7.050003 -0.1999998
vt -7.050003 -0.09999888
vt 8.149997 -0.09999923
vt 8.149997 -0.2000002
vt 7.049999 -0.09999859
vt 7.049999 -0.1999995
vt -8.149997 1.499999
vt -7.049999 1.499999
vt -8.150001 -5.9
vt -7.050003 -5.900001

usemtl _defaultMat (Instance) (Instance) (Instance) (Instance) (Instance) (Instance)
usemap _defaultMat (Instance) (Instance) (Instance) (Instance) (Instance) (Instance)
f 59/165/29 58/164/29 57/163/29
f 58/164/29 59/165/29 60/166/29
f 59/169/30 61/168/30 60/167/30
f 61/168/30 59/169/30 62/170/30
f 61/150/25 58/149/25 60/125/25
f 58/149/25 61/150/25 63/151/25
f 64/153/26 59/130/26 57/152/26
f 59/130/26 64/153/26 62/154/26
f 64/173/31 58/172/31 63/171/31
f 58/172/31 64/173/31 57/174/31
f 61/177/32 64/176/32 63/175/32
f 64/176/32 61/177/32 62/178/32
g block_default_16

v 3.1 -0.1999985 -5.850001
v 3.1 -0.1999985 -4.750002
v 8.200001 -0.2000015 -5.849999
v 8.2 -0.2000015 -4.75
v 8.2 -0.1000015 -4.75
v 8.200001 -0.1000015 -5.849999
v 3.1 -0.09999847 -4.750002
v 3.1 -0.09999852 -5.850001
vn -5.900433E-08 -0.1 3.840919E-09
vn 5.1 -3.009221E-06 2.149489E-06
vn -4.636146E-07 4.225032E-08 1.099998
vn 4.636146E-07 -4.225032E-08 -1.099998
vn -5.1 3.009221E-06 -2.149489E-06
vn 5.900433E-08 0.1 -3.840919E-09
vt -3.1 5.850001
vt -3.1 4.750002
vt -8.2 5.849999
vt -8.2 4.75
vt 4.75 -0.2000015
vt 4.75 -0.1000015
vt 5.849999 -0.2000015
vt 5.849999 -0.1000015
vt 8.2 -0.2000015
vt 3.1 -0.1999985
vt 8.2 -0.1000015
vt 3.1 -0.09999847
vt -3.1 -0.1999985
vt -8.2 -0.2000015
vt -3.1 -0.09999852
vt -8.200001 -0.1000015
vt -4.750002 -0.09999847
vt -4.750002 -0.1999985
vt -5.850001 -0.09999852
vt -5.850001 -0.1999985
vt -3.1 -4.750002
vt -3.1 -5.850001
vt -8.2 -4.75
vt -8.200001 -5.849999

usemtl _defaultMat (Instance) (Instance) (Instance) (Instance) (Instance) (Instance) (Instance)
usemap _defaultMat (Instance) (Instance) (Instance) (Instance) (Instance) (Instance) (Instance)
f 67/181/33 66/180/33 65/179/33
f 66/180/33 67/181/33 68/182/33
f 67/185/34 69/184/34 68/183/34
f 69/184/34 67/185/34 70/186/34
f 69/189/35 66/188/35 68/187/35
f 66/188/35 69/189/35 71/190/35
f 72/193/36 67/192/36 65/191/36
f 67/192/36 72/193/36 70/194/36
f 72/197/37 66/196/37 71/195/37
f 66/196/37 72/197/37 65/198/37
f 69/201/38 72/200/38 71/199/38
f 72/200/38 69/201/38 70/202/38
g block_default_17

v -0.09999967 -0.1999989 0.4499994
v -0.1000001 -0.1999988 1.549997
v 3.8 -0.2000012 0.4500011
v 3.8 -0.2000011 1.549999
v 3.8 -0.1000011 1.549999
v 3.8 -0.1000012 0.4500011
v -0.1 -0.09999883 1.549997
v -0.09999967 -0.09999888 0.4499994
vn 3.9 -2.301169E-06 1.643727E-06
vn -4.636144E-07 4.22503E-08 1.099998
vn 4.636144E-07 -4.22503E-08 -1.099998
vn -3.9 2.301169E-06 -1.643727E-06
vt 0.09999967 -0.4499994
vt 0.1000001 -1.549997
vt -3.8 -0.4500011
vt -3.8 -1.549999
vt -1.549999 -0.2000011
vt -1.549999 -0.1000011
vt -0.4500011 -0.2000012
vt -0.450001 -0.1000012
vt 3.8 -0.2000011
vt -0.1000001 -0.1999988
vt 3.8 -0.1000011
vt -0.1000001 -0.09999883
vt 0.09999967 -0.1999989
vt -3.8 -0.2000012
vt 0.09999961 -0.09999887
vt -3.8 -0.1000012
vt 1.549997 -0.09999883
vt 1.549997 -0.1999988
vt 0.4499994 -0.09999887
vt 0.4499994 -0.1999989
vt 0.1000001 1.549997
vt 0.09999961 0.4499994
vt -3.8 1.549999
vt -3.8 0.450001

usemtl _defaultMat (Instance) (Instance) (Instance) (Instance) (Instance) (Instance) (Instance) (Instance)
usemap _defaultMat (Instance) (Instance) (Instance) (Instance) (Instance) (Instance) (Instance) (Instance)
f 75/205/33 74/204/33 73/203/33
f 74/204/33 75/205/33 76/206/33
f 75/209/39 77/208/39 76/207/39
f 77/208/39 75/209/39 78/210/39
f 77/213/40 74/212/40 76/211/40
f 74/212/40 77/213/40 79/214/40
f 80/217/41 75/216/41 73/215/41
f 75/216/41 80/217/41 78/218/41
f 80/221/42 74/220/42 79/219/42
f 74/220/42 80/221/42 73/222/42
f 77/225/38 80/224/38 79/223/38
f 80/224/38 77/225/38 78/226/38
g block_default_19

v -3 -0.1999961 -13.25
v -3 -0.199996 -12.15
v 9.5 -0.200004 -13.25
v 9.5 -0.2000039 -12.15
v 9.5 -0.09999967 -12.15
v 9.5 -0.09999977 -13.25
v -3 -0.09999184 -12.15
v -3 -0.09999195 -13.25
vn -6.25875E-08 -0.1000042 8.941063E-09
vn 12.5 -7.823109E-06 3.161014E-06
vn -2.781692E-07 9.834777E-08 1.1
vn 2.781692E-07 -9.834777E-08 -1.1
vn -12.5 7.823109E-06 -3.161014E-06
vn 6.25875E-08 0.1000042 -8.941063E-09
vt 3 13.25
vt 3 12.15
vt -9.5 13.25
vt -9.5 12.15
vt 12.15 -0.2000039
vt 12.15 -0.09999967
vt 13.25 -0.200004
vt 13.25 -0.09999977
vt 9.5 -0.2000039
vt -3 -0.199996
vt 9.5 -0.09999967
vt -3 -0.09999184
vt 3 -0.1999961
vt -9.5 -0.200004
vt 3 -0.09999195
vt -9.5 -0.09999977
vt -12.15 -0.09999184
vt -12.15 -0.199996
vt -13.25 -0.09999195
vt -13.25 -0.1999961
vt 3 -12.15
vt 3 -13.25
vt -9.5 -12.15
vt -9.5 -13.25

usemtl _defaultMat (Instance) (Instance) (Instance) (Instance) (Instance) (Instance)
usemap _defaultMat (Instance) (Instance) (Instance) (Instance) (Instance) (Instance)
f 83/229/43 82/228/43 81/227/43
f 82/228/43 83/229/43 84/230/43
f 83/233/44 85/232/44 84/231/44
f 85/232/44 83/233/44 86/234/44
f 85/237/45 82/236/45 84/235/45
f 82/236/45 85/237/45 87/238/45
f 88/241/46 83/240/46 81/239/46
f 83/240/46 88/241/46 86/242/46
f 88/245/47 82/244/47 87/243/47
f 82/244/47 88/245/47 81/246/47
f 85/249/48 88/248/48 87/247/48
f 88/248/48 85/249/48 86/250/48
